<?xml version="1.0" standalone="no"?>
<!DOCTYPE svg PUBLIC "-//W3C//DTD SVG 20010904//EN" "http://www.w3.org/TR/2001/REC-SVG-20010904/DTD/svg10.dtd">
<!-- Created using Krita: https://krita.org -->
<svg xmlns="http://www.w3.org/2000/svg" 
    xmlns:xlink="http://www.w3.org/1999/xlink"
    xmlns:krita="http://krita.org/namespaces/svg/krita"
    xmlns:sodipodi="http://sodipodi.sourceforge.net/DTD/sodipodi-0.dtd"
    width="240pt"
    height="240pt"
    viewBox="0 0 240 240">
<defs/>
<circle id="shape0" transform="translate(40.08, 52.08)" r="31.68" cx="31.68" cy="31.68" fill="none" stroke="#ffffff" stroke-width="3.6" stroke-linecap="square" stroke-linejoin="bevel"/><ellipse id="shape1" transform="translate(51.21, 98.43)" rx="21.24" ry="17.04" cx="21.24" cy="17.04" fill="none" stroke="#ffffff" stroke-width="3.6" stroke-linecap="square" stroke-linejoin="bevel"/><path id="shape2" transform="translate(40.7699999999997, 92.8799999999993)" fill="none" stroke="#ffffff" stroke-width="3.6" stroke-linecap="square" stroke-linejoin="bevel" d="M10.44 27.81C9.92176 27.81 8.05972 17.088 7.83 15.48C7.0936 10.3252 0 3.93592 0 0" sodipodi:nodetypes="ccc"/><path id="shape3" transform="translate(51.2099999999996, 120.689999999999)" fill="none" stroke="#ffffff" stroke-width="3.6" stroke-linecap="square" stroke-linejoin="bevel" d="M0 0C0 3.98787 7.06314 5.73657 9.99 7.2" sodipodi:nodetypes="cc"/><path id="shape4" transform="translate(48.0827388701482, 74.0699999999995)" fill="none" stroke="#ffffff" stroke-width="3.6" stroke-linecap="square" stroke-linejoin="bevel" d="M2.49726 0C5.53426 0 10.8016 2.79608 14.0173 3.6C36.0498 9.10813 8.64485 30.4128 1.95726 10.35C-0.564557 2.78454 -1.55474 0.72 4.65726 0.72" sodipodi:nodetypes="cccc"/><path id="shape5" transform="translate(49.0499999999997, 74.6099999999995)" fill="none" stroke="#ffffff" stroke-width="3.6" stroke-linecap="square" stroke-linejoin="bevel" d="M0 0C0 1.25187 20.1064 7.47 22.14 7.47" sodipodi:nodetypes="cc"/><path id="shape01" transform="matrix(-1 0 0 1 95.5799999999993 75.046895179171)" fill="none" stroke="#ffffff" stroke-width="3.6" stroke-linecap="square" stroke-linejoin="bevel" d="M0 0C0 1.18153 18.9766 7.05027 20.896 7.05027" sodipodi:nodetypes="cc"/><path id="shape02" transform="matrix(-1 0 0 1 95.9399999999993 74.2466890649006)" fill="none" stroke="#ffffff" stroke-width="3.6" stroke-linecap="square" stroke-linejoin="bevel" d="M2.35685 0C5.22309 0 10.1943 2.63887 13.2292 3.39758C34.0228 8.59601 8.15878 28.7028 1.84721 9.76805C-0.532813 2.62797 -1.46732 0.679517 4.3954 0.679517" sodipodi:nodetypes="cccc"/><path id="shape03" transform="matrix(-1 0 0 1 101.069999999999 96.259109727364)" fill="none" stroke="#ffffff" stroke-width="3.6" stroke-linecap="square" stroke-linejoin="bevel" d="M10.006 26.6538C9.50928 26.6538 7.72465 16.3776 7.50448 14.8364C6.79869 9.89594 0 3.77229 0 0" sodipodi:nodetypes="ccc"/><path id="shape6" transform="translate(52.9199999999996, 109.799999999999)" fill="none" stroke="#ffffff" stroke-width="3.6" stroke-linecap="square" stroke-linejoin="bevel" d="M0 2.97C0 26.4393 40.05 22.9205 40.05 0" sodipodi:nodetypes="cc"/><path id="shape7" transform="translate(63.1799999999995, 123.479999999999)" fill="none" stroke="#ffffff" stroke-width="3.6" stroke-linecap="square" stroke-linejoin="bevel" d="M26.55 0C26.55 7.32765 0 6.73645 0 6.57" sodipodi:nodetypes="cc"/><path id="shape8" transform="translate(72.7199999999995, 82.6199999999994)" fill="none" stroke="#ffffff" stroke-width="3.6" stroke-linecap="square" stroke-linejoin="bevel" d="M0 1.8C0 7.18273 0.18 2.54347 0.18 0" sodipodi:nodetypes="cc"/><path id="shape9" transform="translate(64.8899999999995, 87.6599999999994)" fill="none" stroke="#ffffff" stroke-width="3.6" stroke-linecap="square" stroke-linejoin="bevel" d="M7.29 0C6.27338 3.04985 0 10.1187 0 12.69" sodipodi:nodetypes="cc"/><path id="shape10" transform="translate(71.8848367555133, 86.7450002090184)" fill="none" stroke="#ffffff" stroke-width="3.6" stroke-linecap="square" stroke-linejoin="bevel" d="M0.295163 0.915C-1.79995 -3.27522 7.94516 8.02019 7.94516 12.705" sodipodi:nodetypes="cc"/><path id="shape11" transform="translate(53.9099999999996, 100.666332004147)" fill="none" stroke="#ffffff" stroke-width="3.6" stroke-linecap="square" stroke-linejoin="bevel" d="M0 6.43367C8.20336 6.43367 29.081 20.3617 35.73 7.06367C40.1087 -1.69382 -2.58617 3.01846 7.56 6.88367C12.8853 8.91236 22.6744 10.0171 28.35 8.50367C42.4675 4.73901 3.47871 8.29238 1.26 6.07367C-0.721477 4.09219 6.64144 7.64403 9.36 8.32367C13.715 9.41241 27.9593 11.9851 30.42 7.06367C31.5723 4.75902 13.3579 7.17912 9.45 5.71367C3.27466 3.39791 33.869 4.95882 30.15 2.83367C25.5491 0.204558 9.30475 -0.782118 14.4 0.673668C18.5126 1.8487 44.4936 11.2937 25.02 11.2937" sodipodi:nodetypes="ccccccccccc"/><path id="shape12" transform="translate(84.6899999999994, 102.689999999999)" fill="none" stroke="#ffffff" stroke-width="3.6" stroke-linecap="square" stroke-linejoin="bevel" d="M2.61 5.13C2.61 3.97412 0.815174 0.815174 0 0" sodipodi:nodetypes="cc"/><path id="shape13" transform="translate(85.4999999999994, 104.669999999999)" fill="none" stroke="#ffffff" stroke-width="3.6" stroke-linecap="square" stroke-linejoin="bevel" d="M0 0C0 0.738562 1.21283 3.44359 1.8 3.15" sodipodi:nodetypes="cc"/><path id="shape14" transform="translate(54.1384192904082, 112.050043456975)" fill="none" stroke="#ffffff" stroke-width="3.6" stroke-linecap="square" stroke-linejoin="bevel" d="M17.7716 1.61996C14.2111 1.61996 10.6504 1.70824 7.15158 1.16996C-9.61084 -1.40888 7.47314 1.07996 14.0816 1.07996" sodipodi:nodetypes="ccc"/><path id="shape15" transform="translate(55.8899999999996, 101.429999999999)" fill="none" stroke="#ffffff" stroke-width="3.6" stroke-linecap="square" stroke-linejoin="bevel" d="M9.36 0C5.90363 0 2.7303 5.76 0 5.76" sodipodi:nodetypes="cc"/><path id="shape16" transform="translate(55.8899999999996, 107.189549077428)" fill="none" stroke="#ffffff" stroke-width="3.6" stroke-linecap="square" stroke-linejoin="bevel" d="M0 0.000450923C0.301318 -0.0598127 6.21133 5.94045 9.72 5.94045" sodipodi:nodetypes="cc"/><path id="shape17" transform="translate(44.8199999999997, 53.1463595713382)" fill="none" stroke="#ffffff" stroke-width="3.6" stroke-linecap="square" stroke-linejoin="bevel" d="M0 17.3236C20.7649 17.3236 24.0994 28.1063 34.83 25.4236C37.5445 24.745 55.5403 17.5523 54.81 20.4736C54.1749 23.014 50.7746 14.4874 50.49 13.6336C48.6102 7.99435 37.8431 1.24551 31.95 0.40364C23.5791 -0.79221 15.371 0.512689 9.45 6.43364C8.52207 7.36157 1.15545 16.3336 1.26 16.3336" sodipodi:nodetypes="ccccccc"/><path id="shape18" transform="translate(48.5353203422126, 55.6941047566499)" fill="none" stroke="#ffffff" stroke-width="7.2" stroke-linecap="square" stroke-linejoin="bevel" d="M3.66468 12.5259C3.66468 12.6046 4.87472 10.9942 5.10468 10.7259C13.6762 0.72574 40.3648 1.41607 46.1447 12.9759C46.3972 13.4809 46.1962 14.8616 45.7847 15.1359C29.6802 25.8722 12.8086 25.1798 0.51468 12.8859C-4.1226 8.24862 24.0878 2.8082 24.6347 2.6259C27.3789 1.71117 36.0189 2.73062 33.2747 1.8159C23.565 -1.42065 13.5864 -1.24086 10.7747 10.0059C10.3279 11.7929 7.59714 14.4921 9.24468 15.3159C12.7646 17.0759 18.6519 16.1259 22.5647 16.1259C43.1121 16.1259 47.0631 11.0859 20.9447 11.0859C7.13254 11.0859 14.6302 10.9059 24.6347 10.9059C25.9429 10.9059 34.2603 10.4559 31.4747 10.4559" sodipodi:nodetypes="ccccccccccccc"/><path id="shape19" transform="translate(79.562485130721, 92.2499999999993)" fill="none" stroke="#ffffff" stroke-width="3.6" stroke-linecap="square" stroke-linejoin="bevel" d="M0.177515 0C-0.612694 2.37063 1.40014 6.62262 2.96751 8.19" sodipodi:nodetypes="cc"/><path id="shape20" transform="translate(81.2699999999994, 74.2499999999995)" fill="none" stroke="#ffffff" stroke-width="3.6" stroke-linecap="square" stroke-linejoin="bevel" d="M0 18.63C0 21.6595 4.29852 23.9185 6.12 25.74C18.2703 37.8903 19.35 9.14143 19.35 0" sodipodi:nodetypes="ccc"/><path id="shape21" transform="translate(90.9899999999994, 103.121436348447)" fill="none" stroke="#ffffff" stroke-width="3.6" stroke-linecap="square" stroke-linejoin="bevel" d="M0 2.08856C0 1.59973 3.19017 -0.20161 2.97 0.0185637" sodipodi:nodetypes="cc"/><path id="shape04" transform="matrix(-1 0 0 1 63.4250285706993 74.4667418009681)" fill="none" stroke="#ffffff" stroke-width="3.6" stroke-linecap="square" stroke-linejoin="bevel" d="M0 19.6458C0 22.8405 4.53289 25.2226 6.45368 27.1434C19.2665 39.9562 20.405 9.63985 20.405 0" sodipodi:nodetypes="ccc"/><path id="shape22" transform="translate(43.8299999999997, 70.2899999999995)" fill="none" stroke="#ffffff" stroke-width="3.6" stroke-linecap="square" stroke-linejoin="bevel" d="M0 0C0 3.05893 4.77 6.90984 4.77 9.81" sodipodi:nodetypes="cc"/><path id="shape23" transform="translate(46.6199999999997, 71.5499999999995)" fill="none" stroke="#ffffff" stroke-width="3.6" stroke-linecap="square" stroke-linejoin="bevel" d="M0 0C1.23034 0 2.97 3.18489 2.97 4.23" sodipodi:nodetypes="cc"/><path id="shape24" transform="translate(61.8174395783196, 92.1599999999993)" fill="none" stroke="#ffffff" stroke-width="3.6" stroke-linecap="square" stroke-linejoin="bevel" d="M4.24256 0C2.6053 2.45589 -1.03744 10.56 0.28256 7.92" sodipodi:nodetypes="cc"/><path id="shape25" transform="translate(65.5199999999995, 90.5399999999994)" fill="none" stroke="#ffffff" stroke-width="3.6" stroke-linecap="square" stroke-linejoin="bevel" d="M0 4.05C0.554577 2.94085 0.563915 0.876085 1.44 0" sodipodi:nodetypes="cc"/><path id="shape26" transform="translate(44.94, 75.78)" fill="none" stroke="#ffffff" stroke-width="1.2" stroke-linecap="square" stroke-linejoin="bevel" d="M0 0C0 2.84158 3.54 5.18373 3.54 7.5" sodipodi:nodetypes="cc"/><path id="shape27" transform="translate(44.16, 76.56)" fill="none" stroke="#ffffff" stroke-width="1.2" stroke-linecap="square" stroke-linejoin="bevel" d="M2.52 4.86C1.66466 4.00466 0 1.05924 0 0" sodipodi:nodetypes="cc"/><path id="shape28" transform="translate(44.88, 78.48)" fill="none" stroke="#ffffff" stroke-width="1.2" stroke-linecap="square" stroke-linejoin="bevel" d="M0 0C0 2.99531 4.68 5.7661 4.68 8.1" sodipodi:nodetypes="cc"/><path id="shape29" transform="translate(94.98, 74.1978375006829)" fill="none" stroke="#ffffff" stroke-width="1.2" stroke-linecap="square" stroke-linejoin="bevel" d="M0 10.8222C3.68462 10.8222 4.26 -3.06245 4.26 0.622162" sodipodi:nodetypes="cc"/><path id="shape30" transform="translate(95.46, 73.3953799973976)" fill="none" stroke="#ffffff" stroke-width="1.2" stroke-linecap="square" stroke-linejoin="bevel" d="M0 9.16462C3.11236 9.16462 3.54 -2.58774 3.54 0.52462" sodipodi:nodetypes="cc"/><path id="shape31" transform="translate(95.46, 74.82)" fill="none" stroke="#ffffff" stroke-width="1.2" stroke-linecap="square" stroke-linejoin="bevel" d="M3.78 0C2.85518 0.231204 0.307684 8.45793 0 7.74" sodipodi:nodetypes="cc"/><path id="shape32" transform="translate(95.46, 74.88)" fill="none" stroke="#ffffff" stroke-width="1.2" stroke-linecap="square" stroke-linejoin="bevel" d="M0 7.68C1.99106 9.07374 2.40198 0.956031 2.88 0" sodipodi:nodetypes="cc"/><path id="shape33" transform="translate(96, 74.8102705507708)" fill="none" stroke="#ffffff" stroke-width="1.2" stroke-linecap="square" stroke-linejoin="bevel" d="M2.34 0.0697294C1.69894 -0.891853 0.689173 8.40973 0 8.40973" sodipodi:nodetypes="cc"/><path id="shape34" transform="translate(95.88, 74.8506972754835)" fill="none" stroke="#ffffff" stroke-width="1.2" stroke-linecap="square" stroke-linejoin="bevel" d="M0 9.1493C0 7.52142 1.69293 -0.545997 2.46 0.0293027" sodipodi:nodetypes="cc"/><path id="shape35" transform="translate(92.64, 83.46)" fill="none" stroke="#ffffff" stroke-width="1.2" stroke-linecap="square" stroke-linejoin="bevel" d="M4.2 0C3.10455 0.547724 0.998732 4.28127 0 5.28" sodipodi:nodetypes="cc"/><path id="shape36" transform="translate(95.58, 71.94)" fill="none" stroke="#ffffff" stroke-width="1.2" stroke-linecap="square" stroke-linejoin="bevel" d="M2.46 4.44C1.86429 3.24859 0 1.19665 0 0" sodipodi:nodetypes="cc"/><path id="shape37" transform="translate(97.08, 76.44)" fill="none" stroke="#ffffff" stroke-width="1.2" stroke-linecap="square" stroke-linejoin="bevel" d="M2.58 0C2.58 8.33075 4.00906 1.92 0 1.92" sodipodi:nodetypes="cc"/><path id="shape38" transform="translate(45.84, 89.7)" fill="none" stroke="#ffffff" stroke-width="1.2" stroke-linecap="square" stroke-linejoin="bevel" d="M0 0C0 4.88134 7.19341 11.34 11.82 11.34" sodipodi:nodetypes="cc"/><path id="shape05" transform="matrix(-1 0 0 1 98.34 87.9026711619593)" fill="none" stroke="#ffffff" stroke-width="1.2" stroke-linecap="square" stroke-linejoin="bevel" d="M0 0C0 4.93184 6.97572 11.4573 11.4623 11.4573" sodipodi:nodetypes="cc"/><path id="shape39" transform="translate(42.4078977139923, 81.42)" fill="none" stroke="#ffffff" stroke-width="1.2" stroke-linecap="square" stroke-linejoin="bevel" d="M4.2721 0C-0.13149 3.85314 34.3325 25.9803 7.3321 7.98C-15.6652 -7.35151 23.2548 14.9513 18.0721 12.36C-12.9361 -3.1441 12.1321 -0.14839 12.1321 14.82" sodipodi:nodetypes="cccc"/><path id="shape40" transform="translate(44.6165254251704, 82.322959236943)" fill="none" stroke="#ffffff" stroke-width="3.6" stroke-linecap="square" stroke-linejoin="bevel" d="M17.6635 12.987C8.25998 12.987 4.35863 6.52978 0.0234746 0.0270408C-0.437343 -0.664186 5.96658 12.0891 12.1735 16.227C15.2057 18.2485 6.26925 11.9428 4.61347 10.287C1.91468 7.58825 7.90274 14.5417 10.9135 16.047C20.3663 20.7735 8.57347 10.0605 8.57347 11.637" sodipodi:nodetypes="cccccc"/><path id="shape41" transform="translate(46.1699999999997, 88.4699999999994)" fill="none" stroke="#ffffff" stroke-width="3.6" stroke-linecap="square" stroke-linejoin="bevel" d="M0 0C0 4.64981 8.64 6.84115 8.64 10.26" sodipodi:nodetypes="cc"/><path id="shape42" transform="translate(47.3399999999997, 90.6299999999993)" fill="none" stroke="#ffffff" stroke-width="3.6" stroke-linecap="square" stroke-linejoin="bevel" d="M6.3 7.65C3.894 6.447 0 3.07676 0 0" sodipodi:nodetypes="cc"/><path id="shape43" transform="translate(94.1746926938297, 79.9649999999994)" fill="none" stroke="#ffffff" stroke-width="3.6" stroke-linecap="square" stroke-linejoin="bevel" d="M4.55531 0C4.55531 5.951 -4.47269 16.3545 2.89031 5.31" sodipodi:nodetypes="cc"/><path id="shape44" transform="translate(94.5449999999993, 84.7799999999994)" fill="none" stroke="#ffffff" stroke-width="3.6" stroke-linecap="square" stroke-linejoin="bevel" d="M3.105 0C3.105 2.73815 0 10.3431 0 7.605" sodipodi:nodetypes="cc"/><path id="shape45" transform="translate(88.8749999999994, 88.8749999999994)" fill="none" stroke="#ffffff" stroke-width="3.6" stroke-linecap="square" stroke-linejoin="bevel" d="M7.56 0C7.56 3.09682 0 5.57495 0 7.83" sodipodi:nodetypes="cc"/><path id="shape46" transform="translate(86.2649999999994, 93.2849999999993)" fill="none" stroke="#ffffff" stroke-width="3.6" stroke-linecap="square" stroke-linejoin="bevel" d="M8.235 0C6.71638 1.51862 2.35002 4.725 0 4.725" sodipodi:nodetypes="cc"/><path id="shape47" transform="translate(83.7449999999994, 90.8549999999994)" fill="none" stroke="#ffffff" stroke-width="3.6" stroke-linecap="square" stroke-linejoin="bevel" d="M9.495 0C6.20689 0 3.27073 4.41 0 4.41" sodipodi:nodetypes="cc"/><path id="shape48" transform="translate(82.5299999999994, 92.9249999999993)" fill="none" stroke="#ffffff" stroke-width="3.6" stroke-linecap="square" stroke-linejoin="bevel" d="M0 0C1.50622 1.50622 3.37838 2.52113 5.4 3.195" sodipodi:nodetypes="cc"/><path id="shape49" transform="translate(12, 74.1712305539652)" fill="none" stroke="#ffffff" stroke-width="3.6" stroke-linecap="square" stroke-linejoin="bevel" d="M27.36 13.6688C21.5585 10.768 13.6916 6.83265 7.56 4.78877C6.34569 4.384 0 -0.810158 0 0.108769C0 16.3107 23.187 17.0288 29.04 17.0288" sodipodi:nodetypes="cccc"/><path id="shape06" transform="matrix(-1 0 0 1 132.12 75.8413832156911)" fill="none" stroke="#ffffff" stroke-width="3.6" stroke-linecap="square" stroke-linejoin="bevel" d="M26.219 13.0987C20.6594 10.3189 13.1206 6.5477 7.24471 4.58906C6.08104 4.20117 0 -0.77637 0 0.104233C0 15.6305 22.22 16.3186 27.8289 16.3186" sodipodi:nodetypes="cccc"/><path id="shape50" transform="translate(14.3999999999999, 77.6699999999994)" fill="none" stroke="#ffffff" stroke-width="3.6" stroke-linecap="square" stroke-linejoin="bevel" d="M0 0C3.71761 5.57642 16.7075 12.015 23.85 12.015" sodipodi:nodetypes="cc"/><path id="shape51" transform="translate(18.8099999999999, 80.3699999999994)" fill="none" stroke="#ffffff" stroke-width="3.6" stroke-linecap="square" stroke-linejoin="bevel" d="M0 0C4.13113 0 10.1752 8.595 15.435 8.595" sodipodi:nodetypes="cc"/><path id="shape52" transform="translate(24.8849999999998, 83.3399999999994)" fill="none" stroke="#ffffff" stroke-width="3.6" stroke-linecap="square" stroke-linejoin="bevel" d="M9.27 4.77C8.08055 3.97704 1.63386 0 0 0" sodipodi:nodetypes="cc"/><path id="shape53" transform="translate(14.6699999999999, 79.1999999999994)" fill="none" stroke="#ffffff" stroke-width="3.6" stroke-linecap="square" stroke-linejoin="bevel" d="M0 0C0 1.24637 7.15978 7.38 9.135 7.38" sodipodi:nodetypes="cc"/><path id="shape54" transform="translate(117.989999999999, 78.7649999999994)" fill="none" stroke="#ffffff" stroke-width="3.6" stroke-linecap="square" stroke-linejoin="bevel" d="M12.69 0C9.00453 0 5.92963 9.495 0 9.495" sodipodi:nodetypes="cc"/><path id="shape55" transform="translate(121.049999999999, 80.7899999999994)" fill="none" stroke="#ffffff" stroke-width="3.6" stroke-linecap="square" stroke-linejoin="bevel" d="M8.505 0C7.0832 0 3.51339 5.895 0 5.895" sodipodi:nodetypes="cc"/><path id="shape56" transform="translate(111.599999999999, 81.1049999999994)" fill="none" stroke="#ffffff" stroke-width="3.6" stroke-linecap="square" stroke-linejoin="bevel" d="M14.94 0C9.6418 0 5.96426 7.875 0 7.875" sodipodi:nodetypes="cc"/><path id="shape57" transform="translate(108.12, 88.71)" fill="none" stroke="#ffffff" stroke-width="3.6" stroke-linecap="square" stroke-linejoin="bevel" d="M0 1.65C1.43524 1.65 4.40223 1.05777 5.46 0" sodipodi:nodetypes="cc"/><path id="shape58" transform="translate(31.8, 88.86)" fill="none" stroke="#ffffff" stroke-width="3.6" stroke-linecap="square" stroke-linejoin="bevel" d="M0 0C0 4.52736 5.14226 5.7 9.06 5.7" sodipodi:nodetypes="cc"/><path id="shape59" transform="translate(102, 91.92)" fill="none" stroke="#ffffff" stroke-width="3.6" stroke-linecap="square" stroke-linejoin="bevel" d="M0 3.6C0 4.4991 8.94 2.23189 8.94 0" sodipodi:nodetypes="cc"/><path id="shape60" transform="translate(31.0229212273559, 91.7999999999993)" fill="none" stroke="#ffffff" stroke-width="3.6" stroke-linecap="square" stroke-linejoin="bevel" d="M0.207079 0C-2.04281 4.49978 14.832 13.1398 12.5821 8.64" sodipodi:nodetypes="cc"/><path id="shape61" transform="translate(36.4949999999997, 93.0599999999993)" fill="none" stroke="#ffffff" stroke-width="3.6" stroke-linecap="square" stroke-linejoin="bevel" d="M0 0C0 1.17821 4.03421 6.165 5.85 6.165" sodipodi:nodetypes="cc"/><path id="shape62" transform="translate(34.7863205350012, 96.2999999999993)" fill="none" stroke="#ffffff" stroke-width="3.6" stroke-linecap="square" stroke-linejoin="bevel" d="M5.26368 2.385C3.75127 1.30471 -1.09056 1.31423 0.223679 0" sodipodi:nodetypes="cc"/><path id="shape63" transform="translate(29.1875479277102, 90.3599999999994)" fill="none" stroke="#ffffff" stroke-width="3.6" stroke-linecap="square" stroke-linejoin="bevel" d="M0.0174521 0C-0.243812 1.30632 2.49526 4.68 3.75245 4.68" sodipodi:nodetypes="cc"/><path id="shape64" transform="translate(98.52, 89.76)" fill="none" stroke="#ffffff" stroke-width="3.6" stroke-linecap="square" stroke-linejoin="bevel" d="M0 10.08C5.07257 10.08 16.56 5.9883 16.56 0" sodipodi:nodetypes="cc"/><path id="shape65" transform="translate(45.8036189442782, 37.2169351208861)" fill="none" stroke="#ffffff" stroke-width="1.2" stroke-linecap="square" stroke-linejoin="bevel" d="M19.9864 8.59306C16.2159 4.82258 9.71829 6.06497 5.90138 2.24806C1.6583 -1.99502 -1.20601 0.1859 0.501381 5.30806C5.40696 20.0248 9.28571 8.18806 18.3664 8.18806" sodipodi:nodetypes="cccc"/><path id="shape66" transform="translate(107.06804693414, 58.1399999999996)" fill="none" stroke="#ffffff" stroke-width="1.2" stroke-linecap="square" stroke-linejoin="bevel" d="M28.292 4.23C29.012 3.945 28.652 5.49 27.212 8.865C25.772 12.24 24.092 14.4375 22.172 15.4575L19.247 16.5375C12.047 20.9775 6.15945 23.01 1.58445 22.635C-2.99055 22.26 2.34195 14.715 17.582 0L14.792 3.15" sodipodi:nodetypes="czcczcc"/><path id="shape67" transform="translate(73.32, 14.16)" fill="none" stroke="#ffffff" stroke-width="1.2" stroke-linecap="square" stroke-linejoin="bevel" d="M61.14 51.63L59.34 53.34L59.52 54.42C53.58 53.16 54.57 51.93 62.49 50.73C70.41 49.53 75.555 46.635 77.925 42.045L77.925 42.09C87.765 39.75 93.465 35.34 95.025 28.86C96.585 22.38 93.825 22.17 86.745 28.23L86.43 28.23C88.02 28.08 87.945 28.095 86.205 28.275C84.465 28.455 77.97 31.43 66.72 37.2L67.08 32.28C66.68 25 63.68 17.88 58.08 10.92C52.48 3.96 44.4 0.32 33.84 0C22.48 0.48 14 4.2 8.4 11.16C2.8 18.12 9.4739e-15 25.84 0 34.32C6.48 34.76 12.35 36.88 17.61 40.68C22.87 44.48 24.81 45.955 23.43 45.105C23.37 45.375 24.45 46.425 26.67 48.255C28.89 50.085 30.615 53.13 31.845 57.39L33.87 66.615" sodipodi:nodetypes="ccczcczcczcczczczczcc"/><path id="shape68" transform="translate(72.1124999999995, 48.5549999999997)" fill="none" stroke="#ffffff" stroke-width="1.2" stroke-linecap="square" stroke-linejoin="bevel" d="M0 0.405L3.2625 0" sodipodi:nodetypes="cc"/><path id="shape69" transform="translate(84.7349999999994, 40.9949999999997)" fill="none" stroke="#ffffff" stroke-width="1.2" stroke-linecap="square" stroke-linejoin="bevel" d="M18.945 6.12L0 0C1.5 7.89 4.305 12.435 8.415 13.635C12.525 14.835 15.78 13.545 18.18 9.765C18.93 9.015 19.185 7.8 18.945 6.12Z" sodipodi:nodetypes="cczcc"/><path id="shape70" transform="translate(111.779999999999, 41.8049999999997)" fill="none" stroke="#ffffff" stroke-width="1.2" stroke-linecap="square" stroke-linejoin="bevel" d="M20.88 11.835C12.44 11.865 9.185 11.745 11.115 11.475C13.045 11.205 15.13 7.38 17.37 0C6.15 3.63 0.36 5.445 0 5.445C1.14 10.905 4.575 12.96 10.305 11.61C16.035 10.26 18.69 9.585 18.27 9.585L17.91 9.765L17.055 8.82L17.505 8.505L22.14 7.155" sodipodi:nodetypes="czcczccccc"/><path id="shape71" transform="translate(122.039999999999, 56.3849999999996)" fill="none" stroke="#ffffff" stroke-width="1.2" stroke-linecap="square" stroke-linejoin="bevel" d="M10.4625 0C6.6975 4.485 4.0125 6.7275 2.4075 6.7275C0.8025 6.7275 0 6.7275 0 6.7275" sodipodi:nodetypes="czc"/><path id="shape72" transform="translate(123.974999999999, 57.1274999999996)" fill="none" stroke="#ffffff" stroke-width="1.2" stroke-linecap="square" stroke-linejoin="bevel" d="M8.55 0C8.73 0.4275 6.5025 7.965 3.78 8.1225C1.965 8.2275 1.05 8.28 1.035 8.28L0 6.39" sodipodi:nodetypes="czcc"/><path id="shape73" transform="translate(122.737499999999, 62.8199999999996)" fill="none" stroke="#ffffff" stroke-width="1.2" stroke-linecap="square" stroke-linejoin="bevel" d="M0 0C2.145 1.485 3.585 2.3625 4.32 2.6325C5.055 2.9025 5.4225 3.0375 5.4225 3.0375L6.795 3.2625L6.5475 3.2625" sodipodi:nodetypes="czccc"/><path id="shape74" transform="translate(103.319999999999, 53.9324999999996)" fill="none" stroke="#ffffff" stroke-width="1.2" stroke-linecap="square" stroke-linejoin="bevel" d="M11.925 5.31C12.825 6.855 11.8425 7.335 8.9775 6.75C6.1125 6.165 3.12 6.105 0 6.57L4.725 0L9.45 6.705" sodipodi:nodetypes="czccc"/><path id="shape75" transform="translate(75.96, 21.42)" fill="none" stroke="#ffffff" stroke-width="3.6" stroke-linecap="square" stroke-linejoin="bevel" d="M0 18.06C0 5.69124 42.4896 0.61929 47.04 9.72C47.6621 10.9642 18.6866 10.5 17.64 10.5C10.3173 10.5 46.6591 11.8473 39.6 9.9C20.4757 4.62434 30.1186 13.9655 45.6 8.16C45.8681 8.05945 45.0443 8.01446 44.76 7.98C42.0341 7.64959 18 7.51605 18 7.08C18 6.24701 28.029 5.36281 29.1 5.22C42.1958 3.47389 28.641 4.08111 22.92 3.78C15.6292 3.39627 41.9515 3.30836 36.24 2.88C21.6345 1.78458 17.7646 0 35.76 0C41.2333 0 47.3855 0.213439 49.56 4.2C51.2284 7.25881 56.0126 10.046 50.04 8.94C47.7745 8.52046 45.4546 8.27971 43.2 7.8C19.8917 2.8408 51.6 0.797518 51.6 7.02C51.6 9.25504 39.6154 5.35518 38.88 5.04C28.3697 0.535599 49.7819 7.98 51.18 7.98" sodipodi:nodetypes="ccccccccccccccccc"/><path id="shape76" transform="translate(98.16, 25.7674741672447)" fill="none" stroke="#ffffff" stroke-width="3.6" stroke-linecap="square" stroke-linejoin="bevel" d="M27.24 2.55253C23.1637 -0.165 0 -2.47037 0 5.37253" sodipodi:nodetypes="cc"/><path id="shape77" transform="translate(79.3848493359214, 19.0132472208328)" fill="none" stroke="#ffffff" stroke-width="3.6" stroke-linecap="square" stroke-linejoin="bevel" d="M16.9152 12.0668C-12.1296 16.9075 28.255 10.0787 7.79515 14.4068C-9.07793 17.9761 21.1351 7.2551 2.39515 18.1868C1.2577 18.8503 20.4041 6.13956 9.89515 13.8668C6.10212 16.6557 18.6831 7.25742 0.295151 13.3868C-2.24995 14.2351 12.3528 3.78261 17.6952 2.28675C48.5447 -6.35113 -7.88357 12.8524 19.1352 4.74675C19.8325 4.53756 21.2352 4.87476 21.2352 4.14675" sodipodi:nodetypes="cccccccc"/><path id="shape78" transform="translate(83.16, 19.38)" fill="none" stroke="#ffffff" stroke-width="3.6" stroke-linecap="square" stroke-linejoin="bevel" d="M0 10.02C20.3323 4.93693 -7.02748 15.3843 2.16 3.9C5.77566 -0.619578 19.08 5.78788 19.08 0" sodipodi:nodetypes="ccc"/><path id="shape79" transform="translate(81.42, 37.14)" fill="none" stroke="#ffffff" stroke-width="3.6" stroke-linecap="square" stroke-linejoin="bevel" d="M0 0C9.11149 0 17.3771 7.74 26.34 7.74" sodipodi:nodetypes="cc"/><path id="shape80" transform="translate(106.32, 36.24)" fill="none" stroke="#ffffff" stroke-width="3.6" stroke-linecap="square" stroke-linejoin="bevel" d="M0 8.64C9.67682 8.64 17.6201 0 26.64 0" sodipodi:nodetypes="cc"/><path id="shape81" transform="translate(86.04, 36.24)" fill="none" stroke="#ffffff" stroke-width="3.6" stroke-linecap="square" stroke-linejoin="bevel" d="M45.96 0C42.6499 0 0 5.05281 0 0.18" sodipodi:nodetypes="cc"/><path id="shape82" transform="translate(85.7947453492216, 34.3407298953045)" fill="none" stroke="#ffffff" stroke-width="3.6" stroke-linecap="square" stroke-linejoin="bevel" d="M0.245255 2.07927C-0.570035 1.26398 0.848965 1.4527 1.56525 1.35927C14.713 -0.355653 28.4002 0.0392701 41.6453 0.0392701" sodipodi:nodetypes="ccc"/><path id="shape83" transform="translate(93.1500486499437, 32.3108028511599)" fill="none" stroke="#ffffff" stroke-width="3.6" stroke-linecap="square" stroke-linejoin="bevel" d="M4.34995 4.1692C-11.7921 7.39761 21.8583 4.05452 26.37 3.9292C29.981 3.82889 39.0286 6.12687 37.17 3.0292C31.4385 -6.52319 18.2743 9.5692 12.09 9.5692C6.98253 9.5692 37.4728 5.15555 25.29 6.5092C18.7742 7.23317 13.242 10.7122 6.50995 9.0292C5.0238 8.65766 4.05825 7.21196 0.869951 6.1492" sodipodi:nodetypes="ccccccc"/><path id="shape84" transform="translate(81.42, 24.18)" fill="none" stroke="#ffffff" stroke-width="3.6" stroke-linecap="square" stroke-linejoin="bevel" d="M7.86 0C3.66045 0 0 12.6583 0 16.26" sodipodi:nodetypes="cc"/><path id="shape85" transform="translate(54, 43.08)" fill="none" stroke="#ffffff" stroke-width="2.4" stroke-linecap="square" stroke-linejoin="bevel" d="M7.5 1.62C5.04445 1.62 2.22346 0 0 0" sodipodi:nodetypes="cc"/><path id="shape86" transform="translate(55.41, 43.44)" fill="none" stroke="#ffffff" stroke-width="2.4" stroke-linecap="square" stroke-linejoin="bevel" d="M8.22 1.62C-0.808751 1.62 0.717628 1.43526 0 0" sodipodi:nodetypes="cc"/><path id="shape87" transform="translate(47.91, 38.04)" fill="none" stroke="#ffffff" stroke-width="2.4" stroke-linecap="square" stroke-linejoin="bevel" d="M0 0C3.08058 0 9.6783 7.5783 7.5 5.4" sodipodi:nodetypes="cc"/><path id="shape88" transform="translate(46.9434886327027, 38.04)" fill="none" stroke="#ffffff" stroke-width="2.4" stroke-linecap="square" stroke-linejoin="bevel" d="M0.966511 0C-0.294851 0.420454 -0.29705 6.03 0.816511 6.03" sodipodi:nodetypes="cc"/><path id="shape89" transform="translate(48.934056810377, 39.81)" fill="none" stroke="#ffffff" stroke-width="2.4" stroke-linecap="square" stroke-linejoin="bevel" d="M0.265943 0C-0.494939 0 0.557532 5.06159 1.16594 5.67" sodipodi:nodetypes="cc"/><path id="shape90" transform="translate(48.48, 39.42)" fill="none" stroke="#ffffff" stroke-width="2.4" stroke-linecap="square" stroke-linejoin="bevel" d="M0 0C1.42842 1.42842 5.37464 6.96 8.19 6.96" sodipodi:nodetypes="cc"/><path id="shape91" transform="translate(50.67, 41.52)" fill="none" stroke="#ffffff" stroke-width="2.4" stroke-linecap="square" stroke-linejoin="bevel" d="M0 0C2.27549 0.568872 4.57329 3.99 7.02 3.99" sodipodi:nodetypes="cc"/><path id="shape92" transform="translate(49.32, 42.42)" fill="none" stroke="#ffffff" stroke-width="2.4" stroke-linecap="square" stroke-linejoin="bevel" d="M7.26 4.83C4.5412 4.83 1.55853 0 0 0" sodipodi:nodetypes="cc"/><path id="shape93" transform="translate(46.65, 41.52)" fill="none" stroke="#ffffff" stroke-width="2.4" stroke-linecap="square" stroke-linejoin="bevel" d="M0 0C0 1.71246 4.73637 6.39 6.54 6.39" sodipodi:nodetypes="cc"/><path id="shape94" transform="translate(48.27, 44.64)" fill="none" stroke="#ffffff" stroke-width="2.4" stroke-linecap="square" stroke-linejoin="bevel" d="M0 0C0 3.67327 4.06025 3.04025 5.73 4.71" sodipodi:nodetypes="cc"/><path id="shape95" transform="translate(51.39, 45.39)" fill="none" stroke="#ffffff" stroke-width="2.4" stroke-linecap="square" stroke-linejoin="bevel" d="M0 0C0.347548 1.39019 4.03616 3.87 5.46 3.87" sodipodi:nodetypes="cc"/><path id="shape96" transform="translate(50.4, 48.36)" fill="none" stroke="#ffffff" stroke-width="2.4" stroke-linecap="square" stroke-linejoin="bevel" d="M0 0C0 0.936189 2.81965 1.71 3.57 1.71" sodipodi:nodetypes="cc"/><path id="shape97" transform="translate(53.28, 50.01)" fill="none" stroke="#ffffff" stroke-width="2.4" stroke-linecap="square" stroke-linejoin="bevel" d="M0 0C0.209577 0.419154 2.4 0.648675 2.4 0.87" sodipodi:nodetypes="cc"/><path id="shape98" transform="translate(55.6778969506905, 47.97)" fill="none" stroke="#ffffff" stroke-width="2.4" stroke-linecap="square" stroke-linejoin="bevel" d="M0.00210305 2.91C-0.112215 3.04337 4.4721 1.26787 4.4721 0" sodipodi:nodetypes="cc"/><path id="shape99" transform="translate(58.89, 47.97)" fill="none" stroke="#ffffff" stroke-width="2.4" stroke-linecap="square" stroke-linejoin="bevel" d="M9.99 0C6.64011 0 3.31261 0.39 0 0.39" sodipodi:nodetypes="cc"/><path id="shape100" transform="translate(60.21, 48.21)" fill="none" stroke="#ffffff" stroke-width="2.4" stroke-linecap="square" stroke-linejoin="bevel" d="M0 0.99C0.505682 0.737159 1.04698 0.423022 1.47 0" sodipodi:nodetypes="cc"/><path id="shape101" transform="translate(58.86, 46.71)" fill="none" stroke="#ffffff" stroke-width="2.4" stroke-linecap="square" stroke-linejoin="bevel" d="M0 0.21C0.987871 0.21 5.41367 0.70633 6.12 0" sodipodi:nodetypes="cc"/><path id="shape102" transform="translate(64.08, 46.14)" fill="none" stroke="#ffffff" stroke-width="2.4" stroke-linecap="square" stroke-linejoin="bevel" d="M0 0C1.62198 0 3.31726 1.08 3.33 1.08" sodipodi:nodetypes="cc"/><path id="shape103" transform="translate(78.78, 35.7)" fill="none" stroke="#ffffff" stroke-width="2.4" stroke-linecap="square" stroke-linejoin="bevel" d="M1.59 0C0.0225683 1.56743 0 6.84909 0 9.27" sodipodi:nodetypes="cc"/><path id="shape104" transform="translate(77.52, 36.96)" fill="none" stroke="#ffffff" stroke-width="2.4" stroke-linecap="square" stroke-linejoin="bevel" d="M2.1 0C0.0947105 0 0 5.82806 0 7.41" sodipodi:nodetypes="cc"/><path id="shape105" transform="translate(75.36, 38.49)" fill="none" stroke="#ffffff" stroke-width="2.4" stroke-linecap="square" stroke-linejoin="bevel" d="M1.74 0C1.74 1.96373 0 4.04506 0 6.12" sodipodi:nodetypes="cc"/><path id="shape106" transform="translate(74.1315869191571, 36.9)" fill="none" stroke="#ffffff" stroke-width="2.4" stroke-linecap="square" stroke-linejoin="bevel" d="M1.67841 3.54C-1.92099 12.5385 0.43291 9.86557 7.16841 11.79C16.7748 14.5347 8.48841 7.60916 8.48841 0" sodipodi:nodetypes="ccc"/><path id="shape107" transform="translate(75.57, 45.48)" fill="none" stroke="#ffffff" stroke-width="2.4" stroke-linecap="square" stroke-linejoin="bevel" d="M0 0C0.442834 0 9.99 1.58279 9.99 2.34" sodipodi:nodetypes="cc"/><path id="shape108" transform="translate(80.43, 41.7)" fill="none" stroke="#ffffff" stroke-width="2.4" stroke-linecap="square" stroke-linejoin="bevel" d="M5.13 6.12C2.642 6.12 1.39826 0 0 0" sodipodi:nodetypes="cc"/><path id="shape109" transform="translate(80.357749977352, 41.6932043655469)" fill="none" stroke="#ffffff" stroke-width="2.4" stroke-linecap="square" stroke-linejoin="bevel" d="M0.07225 0.00679563C-0.322997 -0.190828 1.03225 3.98268 1.03225 4.5968" sodipodi:nodetypes="cc"/><path id="shape110" transform="translate(77.7, 26.28)" fill="none" stroke="#ffffff" stroke-width="2.4" stroke-linecap="square" stroke-linejoin="bevel" d="M0 7.95C0 4.62496 5.52 2.56003 5.52 0" sodipodi:nodetypes="cc"/><path id="shape111" transform="translate(79.56, 26.04)" fill="none" stroke="#ffffff" stroke-width="2.4" stroke-linecap="square" stroke-linejoin="bevel" d="M2.58 0C1.85905 1.80238 0 3.87018 0 5.88" sodipodi:nodetypes="cc"/><path id="shape112" transform="translate(83.49, 39.03)" fill="none" stroke="#ffffff" stroke-width="2.4" stroke-linecap="square" stroke-linejoin="bevel" d="M0 0C4.19127 0 13.8615 2.53392 17.37 5.04" sodipodi:nodetypes="cc"/><path id="shape113" transform="translate(84.51, 39.9)" fill="none" stroke="#ffffff" stroke-width="2.4" stroke-linecap="square" stroke-linejoin="bevel" d="M0 0C5.32895 0 14.4423 3.12614 19.47 5.64" sodipodi:nodetypes="cc"/><path id="shape114" transform="translate(85.56, 40.08)" fill="none" stroke="#ffffff" stroke-width="2.4" stroke-linecap="square" stroke-linejoin="bevel" d="M0 0C5.44133 1.81378 14.0911 2.37409 18.9 5.58C18.9909 5.64062 19.793 5.85 19.41 5.85" sodipodi:nodetypes="ccc"/><path id="shape115" transform="translate(91.53, 41.97)" fill="none" stroke="#ffffff" stroke-width="2.4" stroke-linecap="square" stroke-linejoin="bevel" d="M0 0C2.52043 1.68028 10.0277 3.96 13.44 3.96" sodipodi:nodetypes="cc"/><path id="shape116" transform="translate(85.71, 49.41)" fill="none" stroke="#ffffff" stroke-width="1.2" stroke-linecap="square" stroke-linejoin="bevel" d="M3.09 3.18C1.85967 2.56484 0.962065 0.962065 0 0" sodipodi:nodetypes="cc"/><path id="shape117" transform="translate(85.71, 49.4017957053018)" fill="none" stroke="#ffffff" stroke-width="1.2" stroke-linecap="square" stroke-linejoin="bevel" d="M0 0.00820429C1.55178 -0.164216 1.72421 2.4382 2.97 2.4382" sodipodi:nodetypes="cc"/><path id="shape118" transform="translate(89.88, 53.16)" fill="none" stroke="#ffffff" stroke-width="1.2" stroke-linecap="square" stroke-linejoin="bevel" d="M0 0C1.16074 1.16074 3.06256 1.77128 4.56 2.52" sodipodi:nodetypes="cc"/><path id="shape119" transform="translate(86.43, 51.3)" fill="none" stroke="#ffffff" stroke-width="1.2" stroke-linecap="square" stroke-linejoin="bevel" d="M8.01 4.38C5.12765 4.1398 1.96384 1.96384 0 0" sodipodi:nodetypes="cc"/><path id="shape120" transform="translate(84.15, 50.22)" fill="none" stroke="#ffffff" stroke-width="1.2" stroke-linecap="square" stroke-linejoin="bevel" d="M0 0C0.436231 0 5.16 2.45621 5.16 3" sodipodi:nodetypes="cc"/><path id="shape121" transform="translate(84.27, 49.83)" fill="none" stroke="#ffffff" stroke-width="1.2" stroke-linecap="square" stroke-linejoin="bevel" d="M0 0C0.246122 0 0.747474 0.373737 0.96 0.48" sodipodi:nodetypes="cc"/><path id="shape122" transform="translate(102.18, 47.01)" fill="none" stroke="#ffffff" stroke-width="2.4" stroke-linecap="square" stroke-linejoin="bevel" d="M7.56 0C4.39638 3.16362 3.32601 9.75399 0 13.08" sodipodi:nodetypes="cc"/><path id="shape123" transform="translate(95.76, 56.01)" fill="none" stroke="#ffffff" stroke-width="2.4" stroke-linecap="square" stroke-linejoin="bevel" d="M0 0C0 1.92803 6.35225 5.11113 7.77 5.82" sodipodi:nodetypes="cc"/><path id="shape124" transform="translate(143.28, 41.28)" fill="none" stroke="#ffffff" stroke-width="3.6" stroke-linecap="square" stroke-linejoin="bevel" d="M22.89 0C14.6889 0 9.94187 16.8 0 16.8" sodipodi:nodetypes="cc"/><path id="shape125" transform="translate(143.07, 45.72)" fill="none" stroke="#ffffff" stroke-width="3.6" stroke-linecap="square" stroke-linejoin="bevel" d="M15.6 0C9.65054 0.495788 5.12506 10.32 0 10.32" sodipodi:nodetypes="cc"/><path id="shape126" transform="translate(150.27, 42.42)" fill="none" stroke="#ffffff" stroke-width="3.6" stroke-linecap="square" stroke-linejoin="bevel" d="M0 12.75C2.63294 12.75 13.53 3.72742 13.53 0" sodipodi:nodetypes="cc"/><path id="shape127" transform="translate(159.09, 41.67)" fill="none" stroke="#ffffff" stroke-width="3.6" stroke-linecap="square" stroke-linejoin="bevel" d="M7.5 0C7.5 1.42162 1.45853 8.67 0 8.67" sodipodi:nodetypes="cc"/><path id="shape128" transform="translate(107.504999999999, 64.5749999999995)" fill="none" stroke="#ffffff" stroke-width="3.6" stroke-linecap="square" stroke-linejoin="bevel" d="M0 0C0 3.21477 4.14644 8.87788 5.67 11.925" sodipodi:nodetypes="cc"/><path id="shape129" transform="translate(114.299999999999, 63.6749999999995)" fill="none" stroke="#ffffff" stroke-width="3.6" stroke-linecap="square" stroke-linejoin="bevel" d="M0 11.475L10.08 6.39L2.25 0L0.36 5.805L4.05 7.11" sodipodi:nodetypes="ccccc"/><path id="shape130" transform="translate(102.554999999999, 61.2899999999996)" fill="none" stroke="#ffffff" stroke-width="3.6" stroke-linecap="square" stroke-linejoin="bevel" d="M17.445 14.535L6.66 17.46L5.445 5.175L5.49 4.59L0 0L13.32 3.24L19.53 6.57" sodipodi:nodetypes="ccccccc"/><path id="shape131" transform="translate(72.1124999999995, 48.8934887178256)" fill="none" stroke="#ffffff" stroke-width="1.2" stroke-linecap="square" stroke-linejoin="bevel" d="M0 0.0665113C0.352926 -0.0679368 0.059781 0.038379 0 0.0665113" sodipodi:nodetypes="cc"/><path id="shape132" transform="translate(57.03, 48.63)" fill="none" stroke="#ffffff" stroke-width="1.2" stroke-linecap="square" stroke-linejoin="bevel" d="M0 2.88C1.30772 1.57228 5.92429 0 7.98 0" sodipodi:nodetypes="cc"/><path id="shape133" transform="translate(69.0299999999995, 47.6999999999997)" fill="none" stroke="#ffffff" stroke-width="0.9672" stroke-linecap="square" stroke-linejoin="bevel" d="M0 0C0.85452 0.42726 2.35076 0.585 3.33 0.585" sodipodi:nodetypes="cc"/><path id="shape134" transform="translate(68.6249999999995, 46.4399999999997)" fill="none" stroke="#ffffff" stroke-width="0.9672" stroke-linecap="square" stroke-linejoin="bevel" d="M0 0C1.61717 0 2.75489 1.845 4.545 1.845" sodipodi:nodetypes="cc"/><path id="shape135" transform="translate(68.9399999999995, 47.2049999999997)" fill="none" stroke="#ffffff" stroke-width="0.9672" stroke-linecap="square" stroke-linejoin="bevel" d="M0 0C1.11158 0 2.36557 0.816392 3.42 1.08" sodipodi:nodetypes="cc"/><path id="shape136" transform="translate(67.1399999999995, 47.5199999999997)" fill="none" stroke="#ffffff" stroke-width="0.9672" stroke-linecap="square" stroke-linejoin="bevel" d="M0 0C0 0.852615 3.82392 1.215 4.635 1.215" sodipodi:nodetypes="cc"/><path id="shape137" transform="translate(60.7499999999996, 48.3749999999997)" fill="none" stroke="#ffffff" stroke-width="0.9672" stroke-linecap="square" stroke-linejoin="bevel" d="M0 1.3275C2.60189 1.3275 5.02614 0 7.65 0" sodipodi:nodetypes="cc"/><path id="shape138" transform="translate(62.0549999999996, 48.6449999999997)" fill="none" stroke="#ffffff" stroke-width="0.9672" stroke-linecap="square" stroke-linejoin="bevel" d="M0 0.8775C1.78293 0.391246 3.6483 0 5.49 0" sodipodi:nodetypes="cc"/><path id="shape139" transform="translate(65.0249999999995, 48.8474999999997)" fill="none" stroke="#ffffff" stroke-width="0.9672" stroke-linecap="square" stroke-linejoin="bevel" d="M0 0.18C0.649616 0.18 1.29657 0 1.9575 0" sodipodi:nodetypes="cc"/><path id="shape140" transform="translate(57.18, 49.08)" fill="none" stroke="#ffffff" stroke-width="0.2472" stroke-linecap="square" stroke-linejoin="bevel" d="M0 3.15C0 1.0338 11.6336 0 12.96 0" sodipodi:nodetypes="cc"/><path id="shape141" transform="translate(61.65, 48.9)" fill="none" stroke="#ffffff" stroke-width="0.2472" stroke-linecap="square" stroke-linejoin="bevel" d="M0 0.93C1.47907 0.93 3.12206 0 4.65 0" sodipodi:nodetypes="cc"/><path id="shape142" transform="translate(69.6, 49.14)" fill="none" stroke="#ffffff" stroke-width="0.2472" stroke-linecap="square" stroke-linejoin="bevel" d="M0 0.06C0.916794 0.06 1.81346 0 2.73 0" sodipodi:nodetypes="cc"/><path id="shape143" transform="translate(69.18, 48.81)" fill="none" stroke="#ffffff" stroke-width="0.2472" stroke-linecap="square" stroke-linejoin="bevel" d="M0 0C0.971925 0 2.24698 0.104246 3.15 0.33" sodipodi:nodetypes="cc"/><path id="shape144" transform="translate(69.1522657045187, 48.81)" fill="none" stroke="#ffffff" stroke-width="0.2472" stroke-linecap="square" stroke-linejoin="bevel" d="M2.48773 0.45C1.91399 0.45 -0.269932 0.148833 0.0277343 0" sodipodi:nodetypes="cc"/><path id="shape145" transform="translate(69.78, 48.24)" fill="none" stroke="#ffffff" stroke-width="0.2472" stroke-linecap="square" stroke-linejoin="bevel" d="M0 0C1.13677 0 2.22545 0.51 3.33 0.51" sodipodi:nodetypes="cc"/><path id="shape146" transform="translate(69.75, 47.07)" fill="none" stroke="#ffffff" stroke-width="0.2472" stroke-linecap="square" stroke-linejoin="bevel" d="M0 0C1.33168 0 2.70694 1.5 4.08 1.5" sodipodi:nodetypes="cc"/><path id="shape147" transform="translate(111.059999999999, 23.0399999999998)" fill="none" stroke="#ffffff" stroke-width="0.9672" stroke-linecap="square" stroke-linejoin="bevel" d="M0 0C0 0.06 0 0.12 0 0.18" sodipodi:nodetypes="cc"/><path id="shape148" transform="translate(108.36, 41.46)" fill="none" stroke="#ffffff" stroke-width="0.9672" stroke-linecap="square" stroke-linejoin="bevel" d="M0 1.68C1.8545 1.06183 5.66594 0 7.56 0" sodipodi:nodetypes="cc"/><path id="shape149" transform="translate(100.598062371, 45.72)" fill="none" stroke="#ffffff" stroke-width="0.9672" stroke-linecap="square" stroke-linejoin="bevel" d="M8.18194 0C8.18194 3.68543 3.85428 9.30765 0.0219376 13.14C-0.143592 13.3055 0.681938 13.1459 0.681938 13.38" sodipodi:nodetypes="ccc"/><path id="shape150" transform="translate(101.28, 45.72)" fill="none" stroke="#ffffff" stroke-width="0.9672" stroke-linecap="square" stroke-linejoin="bevel" d="M0 13.38C0 12.0235 5.57961 0 7.5 0" sodipodi:nodetypes="cc"/><path id="shape151" transform="translate(105.06, 46.7389864404631)" fill="none" stroke="#ffffff" stroke-width="0.9672" stroke-linecap="square" stroke-linejoin="bevel" d="M0 0.00101356C0.678935 0.00101356 4.19607 -0.0314457 4.68 0.271014" sodipodi:nodetypes="cc"/><path id="shape152" transform="translate(103.98, 45.54)" fill="none" stroke="#ffffff" stroke-width="0.9672" stroke-linecap="square" stroke-linejoin="bevel" d="M0 0C0.379063 2.46391 0.48 4.92479 0.48 7.38" sodipodi:nodetypes="cc"/><path id="shape153" transform="translate(104.97, 45.5533326028806)" fill="none" stroke="#ffffff" stroke-width="0.9672" stroke-linecap="square" stroke-linejoin="bevel" d="M0 0.376667C0.642012 -1.54937 0.09 4.43645 0.09 6.46667" sodipodi:nodetypes="cc"/><path id="shape154" transform="translate(105.06, 46.74)" fill="none" stroke="#ffffff" stroke-width="0.9672" stroke-linecap="square" stroke-linejoin="bevel" d="M0 0C0.497351 0.497351 0.641859 5.94 0.18 5.94" sodipodi:nodetypes="cc"/><path id="shape155" transform="translate(104.822454015173, 46.74)" fill="none" stroke="#ffffff" stroke-width="0.9672" stroke-linecap="square" stroke-linejoin="bevel" d="M0.237546 0C-0.366915 1.08803 0.366856 5.99069 0.417546 5.94" sodipodi:nodetypes="cc"/><path id="shape156" transform="translate(106.2, 45.84)" fill="none" stroke="#ffffff" stroke-width="0.9672" stroke-linecap="square" stroke-linejoin="bevel" d="M0 0C0 1.525 0.12 3.18056 0.12 4.68" sodipodi:nodetypes="cc"/><path id="shape157" transform="translate(106.135387810332, 46.2)" fill="none" stroke="#ffffff" stroke-width="0.9672" stroke-linecap="square" stroke-linejoin="bevel" d="M1.92461 0C1.92461 1.1796 -0.707706 4.98924 0.184612 4.32" sodipodi:nodetypes="cc"/><path id="shape158" transform="translate(104.956123726986, 45.93)" fill="none" stroke="#ffffff" stroke-width="0.9672" stroke-linecap="square" stroke-linejoin="bevel" d="M0.0138763 0C1.54591 0.811075 -0.462825 4.7677 0.103876 6.09" sodipodi:nodetypes="cc"/><path id="shape159" transform="translate(100.246290646212, 48.78)" fill="none" stroke="#ffffff" stroke-width="0.9672" stroke-linecap="square" stroke-linejoin="bevel" d="M4.99371 0C4.11242 0.881292 -1.05554 10.0782 0.193709 7.08" sodipodi:nodetypes="cc"/><path id="shape160" transform="translate(100.44, 49.74)" fill="none" stroke="#ffffff" stroke-width="0.9672" stroke-linecap="square" stroke-linejoin="bevel" d="M4.5 0C4.5 1.21509 1.58044 6.43609 0 6.12" sodipodi:nodetypes="cc"/><path id="shape161" transform="translate(98.7, 51.6)" fill="none" stroke="#ffffff" stroke-width="0.9672" stroke-linecap="square" stroke-linejoin="bevel" d="M4.62 0C3.07217 0.515942 1.1434 3.1166 0 4.26" sodipodi:nodetypes="cc"/><path id="shape162" transform="translate(99.96, 51.6)" fill="none" stroke="#ffffff" stroke-width="0.9672" stroke-linecap="square" stroke-linejoin="bevel" d="M3.36 0C2.8156 1.6332 1.22332 3.99668 0 5.22" sodipodi:nodetypes="cc"/><path id="shape163" transform="translate(102.24, 51.12)" fill="none" stroke="#ffffff" stroke-width="0.9672" stroke-linecap="square" stroke-linejoin="bevel" d="M3 0C2.33814 1.32372 0 4.23777 0 5.64" sodipodi:nodetypes="cc"/><path id="shape164" transform="translate(101.28, 52.4481040572326)" fill="none" stroke="#ffffff" stroke-width="0.9672" stroke-linecap="square" stroke-linejoin="bevel" d="M3.18 0.471896C3.18 -1.61703 0 3.78297 0 5.8719" sodipodi:nodetypes="cc"/><path id="shape165" transform="translate(101.132409259386, 52.92)" fill="none" stroke="#ffffff" stroke-width="0.9672" stroke-linecap="square" stroke-linejoin="bevel" d="M3.32759 0C3.88948 2.24755 -0.888479 8.25214 0.147591 6.18" sodipodi:nodetypes="cc"/><path id="shape166" transform="translate(101.28, 52.92)" fill="none" stroke="#ffffff" stroke-width="0.9672" stroke-linecap="square" stroke-linejoin="bevel" d="M3.18 0C2.82297 1.96364 1.17583 4.61222 0 6.18" sodipodi:nodetypes="cc"/><path id="shape167" transform="translate(93.9374999999993, 55.8899999999996)" fill="none" stroke="#ffffff" stroke-width="0.9672" stroke-linecap="square" stroke-linejoin="bevel" d="M0 0C0 1.07739 3.24781 2.79 4.23 2.79" sodipodi:nodetypes="cc"/><path id="shape168" transform="translate(96.6599999999993, 55.6424999999996)" fill="none" stroke="#ffffff" stroke-width="0.9672" stroke-linecap="square" stroke-linejoin="bevel" d="M0 0C0.38716 0.645266 3.36 2.6325 4.23 2.6325" sodipodi:nodetypes="cc"/><path id="shape169" transform="translate(97.9199999999993, 56.6999999999996)" fill="none" stroke="#ffffff" stroke-width="0.9672" stroke-linecap="square" stroke-linejoin="bevel" d="M0 0C0.480888 0 2.69564 1.93784 3.36 2.4" sodipodi:nodetypes="cc"/><path id="shape170" transform="translate(98.5499999999993, 53.5949999999996)" fill="none" stroke="#ffffff" stroke-width="0.9672" stroke-linecap="square" stroke-linejoin="bevel" d="M3.1725 0C2.9624 0 0 4.59802 0 5.175" sodipodi:nodetypes="cc"/><path id="shape171" transform="translate(97.6049999999993, 53.588571892311)" fill="none" stroke="#ffffff" stroke-width="0.9672" stroke-linecap="square" stroke-linejoin="bevel" d="M4.1175 0.00642811C2.9697 -0.174803 0.864608 3.52932 0 4.39393" sodipodi:nodetypes="cc"/><path id="shape172" transform="translate(96.6599999999993, 55.6424999999996)" fill="none" stroke="#ffffff" stroke-width="0.9672" stroke-linecap="square" stroke-linejoin="bevel" d="M0 0C0.526353 0.561443 3.00695 2.3175 3.7125 2.3175" sodipodi:nodetypes="cc"/><path id="shape173" transform="translate(98.3474999999993, 57.0599999999996)" fill="none" stroke="#ffffff" stroke-width="0.9672" stroke-linecap="square" stroke-linejoin="bevel" d="M0 0C0 0.876776 1.55815 2.34 2.475 2.34" sodipodi:nodetypes="cc"/><path id="shape174" transform="translate(100.657044423045, 55.3274999999996)" fill="none" stroke="#ffffff" stroke-width="0.9672" stroke-linecap="square" stroke-linejoin="bevel" d="M0.0529556 3.42C-0.307525 2.33856 1.29046 1.14393 1.29046 0" sodipodi:nodetypes="cc"/><path id="shape175" transform="translate(99.8999999999993, 55.3274999999996)" fill="none" stroke="#ffffff" stroke-width="0.9672" stroke-linecap="square" stroke-linejoin="bevel" d="M2.0475 0C0.911079 0.598116 0 2.23899 0 3.51" sodipodi:nodetypes="cc"/><path id="shape176" transform="translate(97.5599999999993, 55.7774999999996)" fill="none" stroke="#ffffff" stroke-width="0.9672" stroke-linecap="square" stroke-linejoin="bevel" d="M0 0C0.310659 0 2.52839 1.26076 2.4 1.0425" sodipodi:nodetypes="cc"/><path id="shape177" transform="translate(97.1549999999993, 54.9674999999996)" fill="none" stroke="#ffffff" stroke-width="0.9672" stroke-linecap="square" stroke-linejoin="bevel" d="M0 0.72C0 0.519072 2.03394 0 2.3175 0" sodipodi:nodetypes="cc"/><path id="shape178" transform="translate(97.9424999999993, 59.8949999999996)" fill="none" stroke="#ffffff" stroke-width="0.9672" stroke-linecap="square" stroke-linejoin="bevel" d="M0 0C0.0913471 0.0701545 9.63 5.19712 9.63 7.02" sodipodi:nodetypes="cc"/><path id="shape179" transform="translate(99.4049999999993, 61.2899999999996)" fill="none" stroke="#ffffff" stroke-width="0.9672" stroke-linecap="square" stroke-linejoin="bevel" d="M0 0C0.276735 0.237201 7.5357 7.425 8.4825 7.425" sodipodi:nodetypes="cc"/><path id="shape180" transform="translate(100.754999999999, 62.2799999999996)" fill="none" stroke="#ffffff" stroke-width="0.9672" stroke-linecap="square" stroke-linejoin="bevel" d="M0 0C3.17915 2.26073 6.30547 4.48297 8.9775 7.155" sodipodi:nodetypes="cc"/><path id="shape181" transform="translate(103.769999999999, 64.7099999999995)" fill="none" stroke="#ffffff" stroke-width="0.9672" stroke-linecap="square" stroke-linejoin="bevel" d="M0 0C0.025677 0.0328791 2.998 4.64471 4.1175 4.005" sodipodi:nodetypes="cc"/><path id="shape182" transform="translate(104.692499999999, 65.8349999999995)" fill="none" stroke="#ffffff" stroke-width="0.9672" stroke-linecap="square" stroke-linejoin="bevel" d="M0 0C1.16533 1.15224 3.4425 1.8712 3.4425 3.51" sodipodi:nodetypes="cc"/><path id="shape183" transform="translate(103.949999999999, 65.5649999999995)" fill="none" stroke="#ffffff" stroke-width="0.9672" stroke-linecap="square" stroke-linejoin="bevel" d="M0 0C0.091857 0.122476 0.2925 0.372758 0.2925 0.5175" sodipodi:nodetypes="cc"/><path id="shape184" transform="translate(103.184999999999, 64.0349999999995)" fill="none" stroke="#ffffff" stroke-width="0.9672" stroke-linecap="square" stroke-linejoin="bevel" d="M0 0C0 1.92194 3.73265 6.99515 4.995 8.2575" sodipodi:nodetypes="cc"/><path id="shape185" transform="translate(102.734999999999, 64.4174999999995)" fill="none" stroke="#ffffff" stroke-width="0.9672" stroke-linecap="square" stroke-linejoin="bevel" d="M0 0C2.48953 3.11191 5.51864 6.89114 8.415 9.7875" sodipodi:nodetypes="cc"/><path id="shape186" transform="translate(106.177499999999, 68.5574999999995)" fill="none" stroke="#ffffff" stroke-width="0.9672" stroke-linecap="square" stroke-linejoin="bevel" d="M0 0C0.222134 1.55494 2.385 3.40552 2.385 4.6125" sodipodi:nodetypes="cc"/><path id="shape187" transform="translate(104.309999999999, 67.7474999999995)" fill="none" stroke="#ffffff" stroke-width="0.9672" stroke-linecap="square" stroke-linejoin="bevel" d="M3.15 5.5575C1.02062 5.5575 0 2.12938 0 0" sodipodi:nodetypes="cc"/><path id="shape188" transform="translate(105.749999999999, 69.7049999999995)" fill="none" stroke="#ffffff" stroke-width="0.9672" stroke-linecap="square" stroke-linejoin="bevel" d="M2.3625 4.815C2.3625 11.8098 0.709259 1.41852 0 0" sodipodi:nodetypes="cc"/><path id="shape189" transform="translate(105.232499999999, 68.5124999999995)" fill="none" stroke="#ffffff" stroke-width="0.9672" stroke-linecap="square" stroke-linejoin="bevel" d="M0 0C0 3.02038 1.8 5.97005 1.8 9.2025" sodipodi:nodetypes="cc"/><path id="shape190" transform="translate(105.958697992273, 70.6949999999995)" fill="none" stroke="#ffffff" stroke-width="0.9672" stroke-linecap="square" stroke-linejoin="bevel" d="M1.0738 7.02C1.0738 5.8008 -0.771897 1.1482 0.376302 0" sodipodi:nodetypes="cc"/><path id="shape191" transform="translate(106.334999999999, 70.6949999999995)" fill="none" stroke="#ffffff" stroke-width="0.9672" stroke-linecap="square" stroke-linejoin="bevel" d="M0 0C0.980636 1.47095 1.1 3.665 2.3625 4.9275" sodipodi:nodetypes="cc"/><path id="shape192" transform="translate(62.445, 43.41)" fill="none" stroke="#ffffff" stroke-width="0.9672" stroke-linecap="square" stroke-linejoin="bevel" d="M0 0C1.7174 0 5.00548 2.23048 6.105 3.33" sodipodi:nodetypes="cc"/><path id="shape193" transform="translate(51.6937499999996, 49.9049999999996)" fill="none" stroke="#ffffff" stroke-width="0.9672" stroke-linecap="square" stroke-linejoin="bevel" d="M5.14125 1.98C2.80532 1.98 1.92345 0.64115 0 0" sodipodi:nodetypes="cc"/><path id="shape194" transform="translate(160.26, 43.62)" fill="none" stroke="#ffffff" stroke-width="0.9672" stroke-linecap="square" stroke-linejoin="bevel" d="M7.08 0C7.08 3.43524 0 7.45941 0 8.1" sodipodi:nodetypes="cc"/><path id="shape195" transform="translate(160.26, 47.22)" fill="none" stroke="#ffffff" stroke-width="0.9672" stroke-linecap="square" stroke-linejoin="bevel" d="M4.26 0C4.26 1.56826 1.98056 5.16019 0 4.5" sodipodi:nodetypes="cc"/><path id="shape196" transform="translate(162.24, 45.3)" fill="none" stroke="#ffffff" stroke-width="0.9672" stroke-linecap="square" stroke-linejoin="bevel" d="M0 5.34C0 3.77224 3.48 1.56345 3.48 0" sodipodi:nodetypes="cc"/><path id="shape197" transform="translate(139.92, 51)" fill="none" stroke="#ffffff" stroke-width="0.9672" stroke-linecap="square" stroke-linejoin="bevel" d="M0.54 0C0.54 4.3837 4.3837 13.14 0 13.14" sodipodi:nodetypes="cc"/><path id="shape198" transform="translate(115.83, 39.27)" fill="none" stroke="#ffffff" stroke-width="0.24" stroke-linecap="square" stroke-linejoin="bevel" d="M11.04 0C7.09102 0 3.48681 4.17 0 4.17" sodipodi:nodetypes="cc"/><path id="shape199" transform="translate(111.27, 39.54)" fill="none" stroke="#ffffff" stroke-width="1.2" stroke-linecap="square" stroke-linejoin="miter" stroke-miterlimit="2" d="M15.72 0L0 7.02" sodipodi:nodetypes="cc"/><path id="shape200" transform="translate(111.3, 40.29)" fill="none" stroke="#ffffff" stroke-width="1.2" stroke-linecap="square" stroke-linejoin="miter" stroke-miterlimit="2" d="M0 6.24L19.2 0" sodipodi:nodetypes="cc"/><path id="shape201" transform="translate(111.93, 39.78)" fill="none" stroke="#ffffff" stroke-width="1.2" stroke-linecap="square" stroke-linejoin="miter" stroke-miterlimit="2" d="M17.73 0L0 5.94" sodipodi:nodetypes="cc"/><rect id="shape202" transform="translate(117.66, 105.36)" fill="#ffffff" fill-rule="evenodd" stroke="#ffffff" stroke-width="1.2" stroke-linecap="square" stroke-linejoin="bevel" width="50.16" height="10.56"/><rect id="shape07" transform="matrix(0.00244954275370343 -0.999996999865652 0.999996999865652 0.00244954275370343 137.56125749868 135.749667361124)" fill="#ffffff" fill-rule="evenodd" stroke="#ffffff" stroke-width="1.2" stroke-linecap="square" stroke-linejoin="bevel" width="50.16" height="10.56"/><path id="shape203" transform="translate(87.24, 14.3774999999999)" fill="#ffffff" fill-rule="evenodd" stroke="#ffffff" stroke-width="0.24" stroke-linecap="square" stroke-linejoin="bevel" d="M53.925 36.8325L62.205 32.3775L67.875 30.3525L71.835 28.5075L77.64 25.0875L79.62 23.7375L81.33 24.4575L81.06 27.7875L79.215 32.2875L77.82 34.8075L75.48 36.7875L73.77 37.7325L71.34 39.0375L68.55 40.0725L66.57 40.6125L64.005 41.8725L62.475 43.7625L60.585 45.9225L59.055 47.4525L55.95 48.6225L52.305 49.2975L48.3 50.3325L46.635 53.3925L44.52 57.0375L41.01 59.1975L38.4 60.5475L34.395 62.4825L30.975 64.3725L27.735 65.5425L23.64 66.3525L20.49 66.2625L19.365 63.9225L17.835 51.5025L16.17 46.0125L25.62 46.0125L21.075 39.6675L19.05 41.6925L20.535 36.6975L22.875 30.1275L24.81 33.9525L26.835 38.0475L30.12 39.5775L35.925 38.9025L38.355 36.5625L40.47 32.2875L41.91 27.1575L34.44 23.2875L0 6.6225L1.92 4.2225L10.86 1.08L16.7775 0.225L20.85 0L22.875 0.4275L27.06 0.7425L32.76 2.34L37.0725 4.59L40.6725 7.0875L43.26 10.0125L46.77 14.4675L48.0975 16.9875L49.9875 20.475L51.72 24.84L52.53 27.855L52.755 31.725L53.0025 34.83L52.7775 36.8775L53.925 36.8325" sodipodi:nodetypes="ccccccccccccccccccccccccccccccccccccccccccccccccccccccccccccccccccc"/>
</svg>
