<?xml version="1.0" standalone="no"?>
<!DOCTYPE svg PUBLIC "-//W3C//DTD SVG 20010904//EN" "http://www.w3.org/TR/2001/REC-SVG-20010904/DTD/svg10.dtd">
<!-- Created using Krita: https://krita.org -->
<svg xmlns="http://www.w3.org/2000/svg" 
    xmlns:xlink="http://www.w3.org/1999/xlink"
    xmlns:krita="http://krita.org/namespaces/svg/krita"
    xmlns:sodipodi="http://sodipodi.sourceforge.net/DTD/sodipodi-0.dtd"
    width="240pt"
    height="240pt"
    viewBox="0 0 240 240">
<defs/>
<g id="group0" transform="translate(1.51874999999999, 2.60999999999998)" fill="none">
  <path id="shape0" transform="translate(57.0112500000003, 63.5999999999998)" fill="none" stroke="#ffffff" stroke-width="9.6" stroke-linecap="square" stroke-linejoin="miter" stroke-miterlimit="2" d="M0 105.66L36.54 0" sodipodi:nodetypes="cc"/>
  <path id="shape1" transform="matrix(0.999997636682447 0.00217408130591077 -0.00217408130591077 0.999997636682447 95.6731046035198 62.5765835375713)" fill="none" stroke="#ffffff" stroke-width="9.6" stroke-linecap="square" stroke-linejoin="miter" stroke-miterlimit="2" d="M0 0L87.1281 0" sodipodi:nodetypes="cc"/>
  <path id="shape2" transform="translate(146.261249999999, 64.5299999999995)" fill="none" stroke="#ffffff" stroke-width="9.6" stroke-linecap="square" stroke-linejoin="miter" stroke-miterlimit="2" d="M38.7 0L0 103.86" sodipodi:nodetypes="cc"/>
  <path id="shape3" transform="translate(58.0612499999996, 170.19)" fill="none" stroke="#ffffff" stroke-width="9.6" stroke-linecap="square" stroke-linejoin="miter" stroke-miterlimit="2" d="M86.34 0L0 0" sodipodi:nodetypes="cc"/>
  <path id="shape4" transform="translate(116.86125, 65.5050000000001)" fill="none" stroke="#ffffff" stroke-width="9.6" stroke-linecap="square" stroke-linejoin="miter" stroke-miterlimit="2" d="M0 101.85L39.72 0" sodipodi:nodetypes="cc"/>
  <path id="shape5" transform="translate(87.46125, 65.04)" fill="none" stroke="#ffffff" stroke-width="9.6" stroke-linecap="square" stroke-linejoin="miter" stroke-miterlimit="2" d="M37.08 0L0 102.78" sodipodi:nodetypes="cc"/>
  <path id="shape6" transform="translate(72.52125, 135.45)" fill="none" stroke="#ffffff" stroke-width="9.6" stroke-linecap="square" stroke-linejoin="miter" stroke-miterlimit="2" d="M0 0L82.32 0.36" sodipodi:nodetypes="cc"/>
  <path id="shape7" transform="translate(88.06125, 100.95)" fill="none" stroke="#ffffff" stroke-width="9.6" stroke-linecap="square" stroke-linejoin="miter" stroke-miterlimit="2" d="M0 0L81.96 0.24" sodipodi:nodetypes="cc"/>
  <path id="shape8" transform="translate(184.78125, 24.27)" fill="none" stroke="#ffffff" stroke-width="9.6" stroke-linecap="square" stroke-linejoin="miter" stroke-miterlimit="2" d="M0 38.4L30.72 0" sodipodi:nodetypes="cc"/>
  <path id="shape9" transform="translate(21.52125, 170.19)" fill="none" stroke="#ffffff" stroke-width="9.6" stroke-linecap="square" stroke-linejoin="miter" stroke-miterlimit="2" d="M36.18 0L0 42.24" sodipodi:nodetypes="cc"/>
  <path id="shape10" transform="translate(0.401250000000009, 195.15)" fill="none" stroke="#ffffff" stroke-width="0.5232" stroke-linecap="square" stroke-linejoin="bevel" d="M11.52 0L36.48 24.96L0 40.32Z" sodipodi:nodetypes="cccc"/>
  <path id="shape11" transform="translate(198.16125, 0)" fill="none" stroke="#ffffff" stroke-width="0.5232" stroke-linecap="square" stroke-linejoin="bevel" d="M0 13.95L26.88 42.48L38.4 0Z" sodipodi:nodetypes="cccc"/>
  <path id="shape12" transform="translate(215.32125, 15.09)" fill="none" stroke="#ffffff" stroke-width="9.8856" stroke-linecap="square" stroke-linejoin="miter" stroke-miterlimit="2" d="M0 0L0.06 0" sodipodi:nodetypes="cc"/>
  <path id="shape13" transform="translate(223.18125, 15.51)" fill="none" stroke="#ffffff" stroke-width="9.8856" stroke-linecap="square" stroke-linejoin="miter" stroke-miterlimit="2" d="M0 0L0 0.06" sodipodi:nodetypes="cc"/>
  <path id="shape14" transform="translate(221.20125, 16.59)" fill="none" stroke="#ffffff" stroke-width="9.8856" stroke-linecap="square" stroke-linejoin="miter" stroke-miterlimit="2" d="M0 12.24L0.66 0" sodipodi:nodetypes="cc"/>
  <path id="shape15" transform="translate(208.42125, 16.59)" fill="none" stroke="#ffffff" stroke-width="9.8856" stroke-linecap="square" stroke-linejoin="miter" stroke-miterlimit="2" d="M10.32 11.52L0 0" sodipodi:nodetypes="cc"/>
  <path id="shape16" transform="translate(204.04125, 16.59)" fill="none" stroke="#ffffff" stroke-width="0.6144" stroke-linecap="square" stroke-linejoin="miter" stroke-miterlimit="2" d="M0 0L19.56 21.36" sodipodi:nodetypes="cc"/>
  <path id="shape17" transform="translate(199.06125, 14.25)" fill="none" stroke="#ffffff" stroke-width="0.6144" stroke-linecap="square" stroke-linejoin="miter" stroke-miterlimit="2" d="M24.84 26.1L0 0" sodipodi:nodetypes="cc"/>
  <path id="shape18" transform="translate(200.26125, 14.31)" fill="none" stroke="#ffffff" stroke-width="1.0896" stroke-linecap="square" stroke-linejoin="miter" stroke-miterlimit="2" d="M0 0L24.78 25.32" sodipodi:nodetypes="cc"/>
  <path id="shape19" transform="translate(199.00125, 14.13)" fill="none" stroke="#ffffff" stroke-width="1.0896" stroke-linecap="square" stroke-linejoin="miter" stroke-miterlimit="2" d="M26.04 27.66L0 0" sodipodi:nodetypes="cc"/>
  <path id="shape20" transform="translate(199.00125, 1.23000000000002)" fill="none" stroke="#ffffff" stroke-width="1.0896" stroke-linecap="square" stroke-linejoin="miter" stroke-miterlimit="2" d="M0 12.9L36.66 0" sodipodi:nodetypes="cc"/>
  <path id="shape21" transform="translate(224.38125, 1.23000000000002)" fill="none" stroke="#ffffff" stroke-width="1.0896" stroke-linecap="square" stroke-linejoin="miter" stroke-miterlimit="2" d="M11.1 0L0 40.26" sodipodi:nodetypes="cc"/>
  <path id="shape22" transform="translate(225.04125, 0.510000000000018)" fill="none" stroke="#ffffff" stroke-width="1.0896" stroke-linecap="square" stroke-linejoin="miter" stroke-miterlimit="2" d="M0 40.68L10.74 0" sodipodi:nodetypes="cc"/>
  <path id="shape23" transform="translate(200.38125, 14.19)" fill="none" stroke="#ffffff" stroke-width="1.0896" stroke-linecap="square" stroke-linejoin="miter" stroke-miterlimit="2" d="M24 26.1L0 0" sodipodi:nodetypes="cc"/>
  <path id="shape24" transform="translate(201.28125, 2.85000000000002)" fill="none" stroke="#ffffff" stroke-width="1.0896" stroke-linecap="square" stroke-linejoin="miter" stroke-miterlimit="2" d="M0 11.64L32.88 0" sodipodi:nodetypes="cc"/>
  <path id="shape25" transform="translate(202.00125, 4.05000000000002)" fill="none" stroke="#ffffff" stroke-width="2.5296" stroke-linecap="square" stroke-linejoin="miter" stroke-miterlimit="2" d="M0 10.92L30.72 0" sodipodi:nodetypes="cc"/>
  <path id="shape26" transform="translate(223.66125, 2.67000000000002)" fill="none" stroke="#ffffff" stroke-width="2.5296" stroke-linecap="square" stroke-linejoin="miter" stroke-miterlimit="2" d="M9.96 0L0 34.92" sodipodi:nodetypes="cc"/>
  <path id="shape27" transform="translate(218.14125, 28.83)" fill="none" stroke="#ffffff" stroke-width="2.5296" stroke-linecap="square" stroke-linejoin="miter" stroke-miterlimit="2" d="M5.88 9.18L0 0" sodipodi:nodetypes="cc"/>
  <path id="shape28" transform="translate(218.14125, 28.83)" fill="none" stroke="#ffffff" stroke-width="2.5296" stroke-linecap="square" stroke-linejoin="miter" stroke-miterlimit="2" d="M0 0L6.18 6.96" sodipodi:nodetypes="cc"/>
  <path id="shape29" transform="translate(225.04125, 20.43)" fill="none" stroke="#ffffff" stroke-width="2.5296" stroke-linecap="square" stroke-linejoin="miter" stroke-miterlimit="2" d="M0 16.32L3.84 0" sodipodi:nodetypes="cc"/>
  <path id="shape30" transform="translate(225.04125, 5.07000000000002)" fill="none" stroke="#ffffff" stroke-width="2.5296" stroke-linecap="square" stroke-linejoin="miter" stroke-miterlimit="2" d="M0 20.64L6 0" sodipodi:nodetypes="cc"/>
  <path id="shape31" transform="translate(217.36125, 5.07000000000002)" fill="none" stroke="#ffffff" stroke-width="2.5296" stroke-linecap="square" stroke-linejoin="miter" stroke-miterlimit="2" d="M14.1 0L0 7.68" sodipodi:nodetypes="cc"/>
  <path id="shape32" transform="translate(217.36125, 6.33000000000002)" fill="none" stroke="#ffffff" stroke-width="2.5296" stroke-linecap="square" stroke-linejoin="miter" stroke-miterlimit="2" d="M0 6.42L12.78 0" sodipodi:nodetypes="cc"/>
  <path id="shape33" transform="translate(223.66125, 6.27000000000002)" fill="none" stroke="#ffffff" stroke-width="2.5296" stroke-linecap="square" stroke-linejoin="miter" stroke-miterlimit="2" d="M6.9 0L0 8.58" sodipodi:nodetypes="cc"/>
  <path id="shape34" transform="translate(223.24125, 8.91000000000002)" fill="none" stroke="#ffffff" stroke-width="2.5296" stroke-linecap="square" stroke-linejoin="miter" stroke-miterlimit="2" d="M6.42 0L0 3.84" sodipodi:nodetypes="cc"/>
  <path id="shape35" transform="translate(217.36125, 8.91000000000002)" fill="none" stroke="#ffffff" stroke-width="2.5296" stroke-linecap="square" stroke-linejoin="miter" stroke-miterlimit="2" d="M9.9 0L0 1.8" sodipodi:nodetypes="cc"/>
  <path id="shape36" transform="translate(201.251249999999, 1.23000000000002)" fill="none" stroke="#ffffff" stroke-width="0.4944" stroke-linecap="square" stroke-linejoin="miter" stroke-miterlimit="2" d="M0 12.945L32.67 0" sodipodi:nodetypes="cc"/>
  <path id="shape37" transform="translate(233.561249999998, 0.674999999999995)" fill="none" stroke="#ffffff" stroke-width="0.4944" stroke-linecap="square" stroke-linejoin="miter" stroke-miterlimit="2" d="M2.025 0L0 1.125" sodipodi:nodetypes="cc"/>
  <path id="shape38" transform="translate(234.281249999998, 0.359999999999997)" fill="none" stroke="#ffffff" stroke-width="0.4944" stroke-linecap="square" stroke-linejoin="miter" stroke-miterlimit="2" d="M0 0.87L1.26 0" sodipodi:nodetypes="cc"/>
  <path id="shape39" transform="translate(200.711249999999, 0.449999999999998)" fill="none" stroke="#ffffff" stroke-width="0.4944" stroke-linecap="square" stroke-linejoin="miter" stroke-miterlimit="2" d="M34.425 0L0 13.86" sodipodi:nodetypes="cc"/>
  <path id="shape40" transform="translate(210.071249999998, 3.17249999999998)" fill="none" stroke="#ffffff" stroke-width="0.4944" stroke-linecap="square" stroke-linejoin="miter" stroke-miterlimit="2" d="M22.005 0L0 7.3575" sodipodi:nodetypes="cc"/>
  <path id="shape41" transform="translate(3.64125000000001, 201.87)" fill="none" stroke="#ffffff" stroke-width="2.4144" stroke-linecap="square" stroke-linejoin="miter" stroke-miterlimit="2" d="M9.48 0L0 28.5" sodipodi:nodetypes="cc"/>
  <path id="shape42" transform="translate(7.72125000000001, 210.63)" fill="none" stroke="#ffffff" stroke-width="2.4144" stroke-linecap="square" stroke-linejoin="bevel" d="M0.96 19.62L15.36 9.48L8.1 0L3.6 9.48L0 13.32L0 13.98L1.08 16.32L1.02 18.96L0.96 19.62" sodipodi:nodetypes="ccccccccc"/>
  <path id="shape43" transform="translate(2.98125000000001, 197.07)" fill="none" stroke="#ffffff" stroke-width="2.4144" stroke-linecap="square" stroke-linejoin="bevel" d="M12.48 18.18L31.62 23.04L9.36 0L0 35.7L31.2 23.04L12.72 17.82L12.48 18.18" sodipodi:nodetypes="ccccccc"/>
  <path id="shape44" transform="translate(1.66125000000001, 200.19)" fill="none" stroke="#ffffff" stroke-width="2.4144" stroke-linecap="square" stroke-linejoin="bevel" d="M0 33.6L12.18 0L16.74 6.96L12.18 10.38L12.18 4.56L14.16 5.64L11.4 8.4L8.34 13.98L9.54 15L9.54 11.52L7.68 19.14L4.5 28.38L16.02 20.88L12.9 19.92L8.34 23.76L14.58 16.08L16.92 18.18L18.36 19.92L14.16 17.64L23.7 22.32L19.26 23.04L25.56 20.58L25.38 16.08L23.7 12.24L29.88 18.18L26.76 15.36L34.14 19.92L16.02 6.96L12.18 12.24L10.68 19.92L0 33.6" sodipodi:nodetypes="ccccccccccccccccccccccccccccccc"/>
  <path id="shape45" transform="translate(5.02125000000001, 198.81)" fill="none" stroke="#ffffff" stroke-width="2.4144" stroke-linecap="square" stroke-linejoin="bevel" d="M24.18 21.3L0 31.44L21.36 19.38L19.32 15.54L10.98 2.7L7.32 0L8.82 4.86L12.66 11.1L7.56 13.62L5.88 18.78L9.54 16.62L14.28 22.92L14.64 25.92L24.18 21.3" sodipodi:nodetypes="cccccccccccccc"/>
  <path id="shape46" transform="translate(17.68125, 217.47)" fill="none" stroke="#ffffff" stroke-width="2.4144" stroke-linecap="square" stroke-linejoin="bevel" d="M12.42 2.64L0 0L8.52 2.64L12.42 2.64" sodipodi:nodetypes="cccc"/>
  <path id="shape47" transform="translate(1.24125000000001, 213.884999999998)" fill="none" stroke="#ffffff" stroke-width="2.4144" stroke-linecap="square" stroke-linejoin="bevel" d="M8.76 4.0275L14.4975 5.31L14.34 0L26.85 3.06L27.345 3.3975L28.965 6.66L0 20.865L8.76 4.0275" sodipodi:nodetypes="cccccccc"/>
  <path id="shape48" transform="translate(13.3537499999999, 198.776249999999)" fill="none" stroke="#ffffff" stroke-width="2.4144" stroke-linecap="square" stroke-linejoin="miter" stroke-miterlimit="2" d="M0.01125 0.045L0 0" sodipodi:nodetypes="cc"/>
  <path id="shape49" transform="translate(12.0712499999999, 196.132499999999)" fill="none" stroke="#ffffff" stroke-width="0.4944" stroke-linecap="square" stroke-linejoin="miter" stroke-miterlimit="2" d="M0 0L0.07875 0.135" sodipodi:nodetypes="cc"/>
  <path id="shape50" transform="translate(12.1162499999999, 195.783749999999)" fill="none" stroke="#ffffff" stroke-width="0.4944" stroke-linecap="square" stroke-linejoin="miter" stroke-miterlimit="2" d="M0 0L0.4725 0.48375" sodipodi:nodetypes="cc"/>
  <path id="shape51" transform="translate(11.9137499999999, 196.402499999999)" fill="none" stroke="#ffffff" stroke-width="0.4944" stroke-linecap="square" stroke-linejoin="miter" stroke-miterlimit="2" d="M0.9225 0.315L0 0" sodipodi:nodetypes="cc"/>
  <path id="shape52" transform="translate(11.8687499999999, 196.773749999999)" fill="none" stroke="#ffffff" stroke-width="0.4944" stroke-linecap="square" stroke-linejoin="miter" stroke-miterlimit="2" d="M0 0L0.61875 1.74375" sodipodi:nodetypes="cc"/>
  <path id="shape53" transform="translate(28.2937499999998, 212.017499999999)" fill="none" stroke="#ffffff" stroke-width="0.4944" stroke-linecap="square" stroke-linejoin="miter" stroke-miterlimit="2" d="M0 0L7.7625 7.605" sodipodi:nodetypes="cc"/>
  <path id="shape54" transform="translate(33.8962499999998, 220.11)" fill="none" stroke="#ffffff" stroke-width="0.4944" stroke-linecap="square" stroke-linejoin="miter" stroke-miterlimit="2" d="M2.385 0L0 0.93" sodipodi:nodetypes="cc"/>
  <path id="shape55" transform="translate(36.0112499999997, 219.667499999998)" fill="none" stroke="#ffffff" stroke-width="0.4944" stroke-linecap="square" stroke-linejoin="miter" stroke-miterlimit="2" d="M0 0.4425L0.36 0" sodipodi:nodetypes="cc"/>
  <path id="shape56" transform="translate(1.81124999999999, 235.625624999998)" fill="none" stroke="#ffffff" stroke-width="0.4944" stroke-linecap="square" stroke-linejoin="miter" stroke-miterlimit="2" d="M0.140625 0L0 0.045" sodipodi:nodetypes="cc"/>
  <path id="shape57" transform="translate(0.0393749999999995, 235.732499999998)" fill="none" stroke="#ffffff" stroke-width="0.4944" stroke-linecap="square" stroke-linejoin="miter" stroke-miterlimit="2" d="M1.6875 0L0 0.905625" sodipodi:nodetypes="cc"/>
  <path id="shape58" transform="translate(0, 234.219374999998)" fill="none" stroke="#ffffff" stroke-width="0.4944" stroke-linecap="square" stroke-linejoin="miter" stroke-miterlimit="2" d="M0 2.37375L0.365625 0" sodipodi:nodetypes="cc"/>
  <path id="shape59" transform="translate(0.393749999999997, 234.736874999998)" fill="none" stroke="#ffffff" stroke-width="0.4944" stroke-linecap="square" stroke-linejoin="miter" stroke-miterlimit="2" d="M1.45687 0L0 1.35" sodipodi:nodetypes="cc"/>
  <path id="shape60" transform="translate(0.359999999999997, 235.063124999998)" fill="none" stroke="#ffffff" stroke-width="0.4944" stroke-linecap="square" stroke-linejoin="miter" stroke-miterlimit="2" d="M0 1.15875L1.76625 0" sodipodi:nodetypes="cc"/>
  <path id="shape61" transform="translate(0.388124999999997, 234.016874999998)" fill="none" stroke="#ffffff" stroke-width="0.4944" stroke-linecap="square" stroke-linejoin="miter" stroke-miterlimit="2" d="M0 1.8675L1.0125 0" sodipodi:nodetypes="cc"/>
  <path id="shape62" transform="translate(3.25125000000001, 215.52)" fill="none" stroke="#ffffff" stroke-width="0.4944" stroke-linecap="square" stroke-linejoin="miter" stroke-miterlimit="2" d="M2.91 0L0 10.17" sodipodi:nodetypes="cc"/>
  <path id="shape63" transform="translate(3.37125000000001, 215.58)" fill="none" stroke="#ffffff" stroke-width="0.4944" stroke-linecap="square" stroke-linejoin="miter" stroke-miterlimit="2" d="M0 9.81L3.54 0" sodipodi:nodetypes="cc"/>
 </g>
</svg>
