<?xml version="1.0" standalone="no"?>
<!DOCTYPE svg PUBLIC "-//W3C//DTD SVG 20010904//EN" "http://www.w3.org/TR/2001/REC-SVG-20010904/DTD/svg10.dtd">
<!-- Created using Krita: https://krita.org -->
<svg xmlns="http://www.w3.org/2000/svg" 
    xmlns:xlink="http://www.w3.org/1999/xlink"
    xmlns:krita="http://krita.org/namespaces/svg/krita"
    xmlns:sodipodi="http://sodipodi.sourceforge.net/DTD/sodipodi-0.dtd"
    width="240pt"
    height="240pt"
    viewBox="0 0 240 240">
<defs/>
<path id="shape0" transform="translate(32.04, 31.2)" fill="none" stroke="#ffffff" stroke-width="14.4" stroke-linecap="square" stroke-linejoin="miter" stroke-miterlimit="2" d="M0 0L184.84 0" sodipodi:nodetypes="cc"/><path id="shape01" transform="matrix(0.00327162430212359 -0.999994648222892 0.999994648222892 0.00327162430212359 30.9876364819981 215.935505388759)" fill="none" stroke="#ffffff" stroke-width="14.4" stroke-linecap="square" stroke-linejoin="miter" stroke-miterlimit="2" d="M0 0L184.84 0" sodipodi:nodetypes="cc"/><path id="shape02" transform="matrix(0.00201041505534285 -0.614497298710198 0.999994648222892 0.00327162430212359 216.467926205491 144.719175304833)" fill="none" stroke="#ffffff" stroke-width="14.4" stroke-linecap="square" stroke-linejoin="miter" stroke-miterlimit="2" d="M0 0L184.84 0" sodipodi:nodetypes="cc"/><path id="shape03" transform="matrix(0.507465916468296 0 0 1 31.1200000000002 216.005999999999)" fill="none" stroke="#ffffff" stroke-width="14.4" stroke-linecap="square" stroke-linejoin="miter" stroke-miterlimit="2" d="M0 0L184.84 0" sodipodi:nodetypes="cc"/><path id="shape1" transform="translate(48.48, 62.16)" fill="#ffffff" fill-rule="evenodd" stroke="#ffffff" stroke-width="7.2" stroke-linecap="square" stroke-linejoin="bevel" d="M0.96 118.08L44.64 43.2L83.28 71.28L119.04 0L155.28 65.04L102.48 64.8L78.72 97.44L78.48 128.16L0 127.92L0 119.52L0.96 118.08" sodipodi:nodetypes="ccccccccccc"/><ellipse id="shape2" transform="translate(55.44, 49.68)" rx="20.52" ry="20.52" cx="20.52" cy="20.52" fill="#ffffff" fill-rule="evenodd" stroke="#ffffff" stroke-width="7.2" stroke-linecap="square" stroke-linejoin="bevel"/><path id="shape3" transform="translate(150.479999999999, 173.517075898017)" fill="none" stroke="#ffffff" stroke-width="7.2" stroke-linecap="square" stroke-linejoin="miter" stroke-miterlimit="2" d="M0 49.8629L0 0" sodipodi:nodetypes="cc"/><path id="shape4" transform="translate(150.798209197769, 223.559999999998)" fill="none" stroke="#ffffff" stroke-width="7.2" stroke-linecap="square" stroke-linejoin="miter" stroke-miterlimit="2" d="M55.8418 0L0 0" sodipodi:nodetypes="cc"/><path id="shape04" transform="translate(206.747999999999, 173.031365898017)" fill="none" stroke="#ffffff" stroke-width="7.2" stroke-linecap="square" stroke-linejoin="miter" stroke-miterlimit="2" d="M0 49.8629L0 0" sodipodi:nodetypes="cc"/><path id="shape5" transform="translate(150.48, 173.52)" fill="none" stroke="#ffffff" stroke-width="7.2" stroke-linecap="square" stroke-linejoin="miter" stroke-miterlimit="2" d="M0 0L9.19861 0" sodipodi:nodetypes="cc"/><path id="shape05" transform="translate(197.527861, 173.088)" fill="none" stroke="#ffffff" stroke-width="7.2" stroke-linecap="square" stroke-linejoin="miter" stroke-miterlimit="2" d="M0 0L9.19861 0" sodipodi:nodetypes="cc"/><path id="shape6" transform="translate(170.04, 161.155000241103)" fill="none" stroke="#ffffff" stroke-width="7.2" stroke-linecap="square" stroke-linejoin="miter" stroke-miterlimit="2" d="M0 51.845L0 0" sodipodi:nodetypes="cc"/><path id="shape06" transform="translate(187.008, 161.227500241103)" fill="none" stroke="#ffffff" stroke-width="7.2" stroke-linecap="square" stroke-linejoin="miter" stroke-miterlimit="2" d="M0 51.845L0 0" sodipodi:nodetypes="cc"/><path id="shape7" transform="translate(171.629999999999, 212.984999999999)" fill="none" stroke="#ffffff" stroke-width="7.2" stroke-linecap="square" stroke-linejoin="miter" stroke-miterlimit="2" d="M13.41 0L0 0" sodipodi:nodetypes="cc"/><path id="shape8" transform="translate(155.159999999999, 158.939999999999)" fill="none" stroke="#ffffff" stroke-width="7.2" stroke-linecap="square" stroke-linejoin="miter" stroke-miterlimit="2" d="M0 0L47.1686 0" sodipodi:nodetypes="cc"/><path id="shape9" transform="matrix(0.921568627450981 0 0 0.921568627450981 156.052941176471 139.232941176471)" fill="none" stroke="#ffffff" stroke-width="7.2" stroke-linecap="square" stroke-linejoin="miter" stroke-miterlimit="2" d="M0 18.36C7.76 12.24 15.52 6.12 23.28 0" sodipodi:nodetypes="cc"/><path id="shape07" transform="matrix(-0.955691439625588 0 0 0.955691439625588 201.053570161802 138.510752376686)" fill="none" stroke="#ffffff" stroke-width="7.2" stroke-linecap="square" stroke-linejoin="miter" stroke-miterlimit="2" d="M0 18.36C7.76 12.24 15.52 6.12 23.28 0" sodipodi:nodetypes="cc"/><path id="shape10" transform="translate(175.74, 143.64)" fill="none" stroke="#ffffff" stroke-width="7.2" stroke-linecap="square" stroke-linejoin="miter" stroke-miterlimit="2" d="M0 0L19.56 12.24" sodipodi:nodetypes="cc"/><path id="shape11" transform="translate(165.12, 155.16)" fill="none" stroke="#ffffff" stroke-width="7.2" stroke-linecap="square" stroke-linejoin="miter" stroke-miterlimit="2" d="M0 0.18L28.08 0" sodipodi:nodetypes="cc"/><path id="shape12" transform="translate(171.84, 146.46)" fill="none" stroke="#ffffff" stroke-width="7.2" stroke-linecap="square" stroke-linejoin="miter" stroke-miterlimit="2" d="M7.5 0L0 8.1" sodipodi:nodetypes="cc"/><path id="shape13" transform="translate(168.54, 149.7)" fill="none" stroke="#ffffff" stroke-width="7.2" stroke-linecap="square" stroke-linejoin="miter" stroke-miterlimit="2" d="M0 0L14.88 0.42" sodipodi:nodetypes="cc"/><path id="shape14" transform="translate(181.2, 156.48)" fill="none" stroke="#ffffff" stroke-width="7.2" stroke-linecap="square" stroke-linejoin="miter" stroke-miterlimit="2" d="M2.64 0L0 54" sodipodi:nodetypes="cc"/><path id="shape15" transform="translate(176.4, 156.24)" fill="none" stroke="#ffffff" stroke-width="7.2" stroke-linecap="square" stroke-linejoin="miter" stroke-miterlimit="2" d="M0.48 54.48L0 0" sodipodi:nodetypes="cc"/>
</svg>
