<?xml version="1.0" standalone="no"?>
<!DOCTYPE svg PUBLIC "-//W3C//DTD SVG 20010904//EN" "http://www.w3.org/TR/2001/REC-SVG-20010904/DTD/svg10.dtd">
<!-- Created using Krita: https://krita.org -->
<svg xmlns="http://www.w3.org/2000/svg" 
    xmlns:xlink="http://www.w3.org/1999/xlink"
    xmlns:krita="http://krita.org/namespaces/svg/krita"
    xmlns:sodipodi="http://sodipodi.sourceforge.net/DTD/sodipodi-0.dtd"
    width="240pt"
    height="240pt"
    viewBox="0 0 240 240">
<defs/>
<rect id="shape0" transform="translate(8.15999999999999, 149.16)" fill="none" stroke="#ffffff" stroke-width="9.6" stroke-linecap="square" stroke-linejoin="bevel" width="223.68" height="82.6799999999986"/><rect id="shape1" transform="translate(96, 149.16)" fill="none" stroke="#ffffff" stroke-width="9.6" stroke-linecap="square" stroke-linejoin="bevel" width="48" height="41.28"/><ellipse id="shape2" transform="translate(116.28, 159.6)" rx="3.24" ry="3.23999999999999" cx="3.24" cy="3.23999999999999" fill="none" stroke="#ffffff" stroke-width="9.6" stroke-linecap="square" stroke-linejoin="bevel"/><path id="shape3" transform="translate(119.52, 163.08)" fill="none" stroke="#ffffff" stroke-width="9.6" stroke-linecap="square" stroke-linejoin="miter" stroke-miterlimit="2" d="M0 0L0 13.56" sodipodi:nodetypes="cc"/><path id="shape4" transform="translate(8.96000000000002, 107.867041865703)" fill="none" stroke="#ffffff" stroke-width="9.6" stroke-linecap="square" stroke-linejoin="miter" stroke-miterlimit="2" d="M0 41.413L40.933 0" sodipodi:nodetypes="cc"/><path id="shape01" transform="matrix(-8.32667268468867e-17 -1 1 -8.32667268468867e-17 188.2353 149.485341865702)" fill="none" stroke="#ffffff" stroke-width="9.6" stroke-linecap="square" stroke-linejoin="miter" stroke-miterlimit="2" d="M0 41.863L42.043 0" sodipodi:nodetypes="cc"/><path id="shape5" transform="translate(54.9277775579753, 105.96)" fill="none" stroke="#ffffff" stroke-width="9.6" stroke-linecap="square" stroke-linejoin="miter" stroke-miterlimit="2" d="M0 0L129.184 0" sodipodi:nodetypes="cc"/><path id="shape6" transform="translate(186.48, 64.8942939087687)" fill="none" stroke="#ffffff" stroke-width="9.6" stroke-linecap="square" stroke-linejoin="miter" stroke-miterlimit="2" d="M0 40.3457L40.3457 0" sodipodi:nodetypes="cc"/><path id="shape02" transform="matrix(0.0292639286597668 -0.999571719527621 0.999571719527621 0.0292639286597668 10.3168727944636 105.339587427777)" fill="none" stroke="#ffffff" stroke-width="9.6" stroke-linecap="square" stroke-linejoin="miter" stroke-miterlimit="2" d="M0 40.3457L40.3457 0" sodipodi:nodetypes="cc"/><path id="shape7" transform="translate(9.60000000000001, 60.2399999999998)" fill="none" stroke="#ffffff" stroke-width="9.6" stroke-linecap="square" stroke-linejoin="miter" stroke-miterlimit="2" d="M219.12 0L0 2.84217e-14" sodipodi:nodetypes="cc"/><path id="shape8" transform="translate(136.439999999999, 31.8599999999998)" fill="none" stroke="#ffffff" stroke-width="0.0024" stroke-linecap="square" stroke-linejoin="miter" stroke-miterlimit="2" d="M0 18.9L38.16 0" sodipodi:nodetypes="cc"/><path id="shape9" transform="translate(92.1599999999993, 39.9599999999997)" fill="none" stroke="#ffffff" stroke-width="0.0024" stroke-linecap="square" stroke-linejoin="miter" stroke-miterlimit="2" d="M0 0L106.2 2.16" sodipodi:nodetypes="cc"/><path id="shape10" transform="translate(38.1599999999997, 36.1799999999997)" fill="none" stroke="#ffffff" stroke-width="0.0024" stroke-linecap="square" stroke-linejoin="miter" stroke-miterlimit="2" d="M152.64 0L0 2.7" sodipodi:nodetypes="cc"/><path id="shape03" transform="translate(185.37, 18.7199999999999)" fill="none" stroke="#ffffff" stroke-width="9.6" stroke-linecap="square" stroke-linejoin="bevel" d="M43.29 37.71C42.93 25.41 38.1 16.08 28.8 9.72C19.5 3.36 9.9 0.12 0 0" sodipodi:nodetypes="czc"/><path id="shape011" transform="matrix(-1 0 0 1 52.328265990208 18.7199999999994)" fill="none" stroke="#ffffff" stroke-width="9.6" stroke-linecap="square" stroke-linejoin="bevel" d="M42.7283 37.2207C42.3729 25.0803 37.6056 15.8713 28.4263 9.59387C19.247 3.3164 9.77154 0.118443 0 0" sodipodi:nodetypes="czc"/><path id="shape11" transform="translate(55.2599999999996, 19.4399999999999)" fill="none" stroke="#ffffff" stroke-width="0.0024" stroke-linecap="square" stroke-linejoin="miter" stroke-miterlimit="2" d="M0 0L126.005 0" sodipodi:nodetypes="cc"/><path id="shape21" transform="translate(81.9899999999994, 13.6799999999999)" fill="none" stroke="#ffffff" stroke-width="0.0024" stroke-linecap="square" stroke-linejoin="miter" stroke-miterlimit="2" d="M102.78 3.33L0 0" sodipodi:nodetypes="cc"/><path id="shape31" transform="translate(68.7599999999995, 16.9199999999999)" fill="none" stroke="#ffffff" stroke-width="0.0024" stroke-linecap="square" stroke-linejoin="miter" stroke-miterlimit="2" d="M0 0L119.52 28.8" sodipodi:nodetypes="cc"/><path id="shape41" transform="translate(68.0399999999995, 19.2599999999999)" fill="none" stroke="#ffffff" stroke-width="0.0024" stroke-linecap="square" stroke-linejoin="miter" stroke-miterlimit="2" d="M0 0L75.6 9.18" sodipodi:nodetypes="cc"/><path id="shape04" transform="translate(111.599999999999, 25.1999999999998)" fill="none" stroke="#ffffff" stroke-width="0.0024" stroke-linecap="square" stroke-linejoin="miter" stroke-miterlimit="2" d="M0 24.84L55.62 0" sodipodi:nodetypes="cc"/><path id="shape12" transform="translate(83.6999999999994, 9.53999999999994)" fill="none" stroke="#ffffff" stroke-width="0.0024" stroke-linecap="square" stroke-linejoin="miter" stroke-miterlimit="2" d="M0 38.7L63.18 0" sodipodi:nodetypes="cc"/><path id="shape22" transform="translate(67.6799999999995, 4.67999999999996)" fill="none" stroke="#ffffff" stroke-width="0.0024" stroke-linecap="square" stroke-linejoin="miter" stroke-miterlimit="2" d="M0 0L48.42 31.32" sodipodi:nodetypes="cc"/><path id="shape32" transform="translate(43.1999999999997, 17.6399999999999)" fill="none" stroke="#ffffff" stroke-width="0.0024" stroke-linecap="square" stroke-linejoin="miter" stroke-miterlimit="2" d="M0 0L107.28 10.08" sodipodi:nodetypes="cc"/><ellipse id="shape51" transform="translate(54, 21.84)" rx="21" ry="3.96" cx="21" cy="3.96" fill="none" stroke="#ffffff" stroke-width="0.0024" stroke-linecap="square" stroke-linejoin="bevel"/><path id="shape13" transform="translate(54.8877966101695, 18.6925423728814)" fill="none" stroke="#ffffff" stroke-width="9.6" stroke-linecap="square" stroke-linejoin="miter" stroke-miterlimit="2" d="M0 0L125.564 0" sodipodi:nodetypes="cc"/><path id="shape14" transform="translate(31.4999999999998, 124.812903861437)" fill="none" stroke="#ffffff" stroke-width="9.6" stroke-linecap="square" stroke-linejoin="bevel" d="M0 4.0671C5.04008 -0.972984 15.7992 -2.33478 19.08 5.8671C19.1611 6.06997 21.9759 12.5271 20.16 12.5271" sodipodi:nodetypes="ccc"/><path id="shape15" transform="translate(54.7199999999996, 124.918990600991)" fill="none" stroke="#ffffff" stroke-width="9.6" stroke-linecap="square" stroke-linejoin="bevel" d="M0 9.18101C0 -1.47691 19.8 -2.93419 19.8 5.22101" sodipodi:nodetypes="cc"/><path id="shape16" transform="translate(76.3199999999995, 113.980663031526)" fill="none" stroke="#ffffff" stroke-width="9.6" stroke-linecap="square" stroke-linejoin="bevel" d="M0 11.2993C0 -5.52793 25.56 -2.10744 25.56 12.0193" sodipodi:nodetypes="cc"/><path id="shape17" transform="translate(21.4199999999999, 137.234429920469)" fill="none" stroke="#ffffff" stroke-width="9.6" stroke-linecap="square" stroke-linejoin="bevel" d="M0 2.62557C5.95296 -3.32739 26.28 1.54777 26.28 10.1856" sodipodi:nodetypes="cc"/><path id="shape18" transform="translate(50.7599999999996, 139.995973970661)" fill="none" stroke="#ffffff" stroke-width="9.6" stroke-linecap="square" stroke-linejoin="bevel" d="M0 5.98403C0 -5.22394 22.0743 2.13831 25.38 5.44403" sodipodi:nodetypes="cc"/><path id="shape19" transform="translate(76.13665033778, 132.023443496871)" fill="none" stroke="#ffffff" stroke-width="9.6" stroke-linecap="square" stroke-linejoin="bevel" d="M1.26335 9.99656C1.26335 -15.8811 41.1889 16.6566 7.02335 16.6566C5.13873 16.6566 -0.152 12.7952 0.00334966 13.4166" sodipodi:nodetypes="ccc"/><path id="shape20" transform="translate(97.3799999999993, 129.89446186138)" fill="none" stroke="#ffffff" stroke-width="9.6" stroke-linecap="square" stroke-linejoin="bevel" d="M0 5.64554C8.88041 -12.1153 47.9659 17.7055 0.72 17.7055" sodipodi:nodetypes="cc"/><path id="shape23" transform="translate(75.8497366003025, 129.059999999999)" fill="none" stroke="#ffffff" stroke-width="9.6" stroke-linecap="square" stroke-linejoin="bevel" d="M1.73026 7.2C0.81324 7.2 -0.368772 0 0.110263 0" sodipodi:nodetypes="cc"/><path id="shape24" transform="translate(121.679999999999, 129.47619191162)" fill="none" stroke="#ffffff" stroke-width="9.6" stroke-linecap="square" stroke-linejoin="bevel" d="M0 6.60381C12.7465 -12.516 38.2961 15.9638 0.36 15.9638" sodipodi:nodetypes="cc"/><path id="shape25" transform="translate(144.612187487562, 128.430180555121)" fill="none" stroke="#ffffff" stroke-width="9.6" stroke-linecap="square" stroke-linejoin="bevel" d="M1.18781 3.32982C5.96899 -6.23254 29.5162 7.04142 21.5278 15.0298C4.64403 31.9136 -2.59332 1.34982 0.827813 1.34982" sodipodi:nodetypes="ccc"/><path id="shape26" transform="translate(105.479999999999, 118.278748368824)" fill="none" stroke="#ffffff" stroke-width="9.6" stroke-linecap="square" stroke-linejoin="bevel" d="M0 6.64125C0 -3.65015 21.78 -1.33897 21.78 9.16125" sodipodi:nodetypes="cc"/><path id="shape27" transform="translate(131.039999999999, 115.880075034689)" fill="none" stroke="#ffffff" stroke-width="9.6" stroke-linecap="square" stroke-linejoin="bevel" d="M0 8.13992C0 -2.86432 25.2 -2.91075 25.2 9.21992" sodipodi:nodetypes="cc"/><path id="shape28" transform="translate(166.319999999999, 125.388531728465)" fill="none" stroke="#ffffff" stroke-width="9.6" stroke-linecap="square" stroke-linejoin="bevel" d="M0 8.89147C0 -5.76151 36.7188 -1.90732 17.28 17.5315C13.0204 21.7911 7.07841 18.2515 4.14 18.2515" sodipodi:nodetypes="ccc"/><path id="shape29" transform="translate(186.479999999999, 132.361352983178)" fill="none" stroke="#ffffff" stroke-width="9.6" stroke-linecap="square" stroke-linejoin="bevel" d="M0 4.43865C0 -2.15002 22.68 -3.64985 22.68 15.9586" sodipodi:nodetypes="cc"/><path id="shape30" transform="translate(161.639999999999, 113.99189776592)" fill="none" stroke="#ffffff" stroke-width="9.6" stroke-linecap="square" stroke-linejoin="bevel" d="M0 12.7281C0 -2.68766 21.42 -5.26376 21.42 11.4681" sodipodi:nodetypes="cc"/><path id="shape33" transform="translate(73.7999999999995, 133.019999999999)" fill="none" stroke="#ffffff" stroke-width="9.6" stroke-linecap="square" stroke-linejoin="bevel" d="M0 0C0 0.552779 1.28613 1.62 1.62 1.62" sodipodi:nodetypes="cc"/><path id="shape34" transform="translate(162.359999999999, 137.879999999999)" fill="none" stroke="#ffffff" stroke-width="9.6" stroke-linecap="square" stroke-linejoin="bevel" d="M1.8 0C1.5608 0 0 4.04268 0 4.5" sodipodi:nodetypes="cc"/><rect id="shape35" transform="translate(95.04, 41.28)" fill="none" stroke="#ffffff" stroke-width="9.6" stroke-linecap="square" stroke-linejoin="bevel" width="49.44" height="18.96"/>
</svg>
